<svg width="20" height="20" viewBox="0 0 20 20" fill="none" xmlns="http://www.w3.org/2000/svg">
<g clip-path="url(#clip0_1337_16422)">
<path d="M0.436161 14.895C0.844494 16.3434 2.09366 16.6084 2.17699 16.6592C4.23283 17.2192 15.7562 17.2209 17.8428 16.6592C19.272 16.2459 19.5345 14.9784 19.5837 14.895C20.1278 12 20.1637 8.22587 19.5587 4.94087L19.5837 5.10421C19.1753 3.65587 17.9262 3.39087 17.8428 3.34004C15.8145 2.78921 4.26116 2.76837 2.17699 3.34004C0.747827 3.75421 0.485327 5.02087 0.436161 5.10421C-0.146339 8.14671 -0.175506 11.6375 0.436161 14.895ZM8.00783 13.0425V6.96504L13.2295 10.0084L8.00783 13.0425Z" fill="#E53935"/>
</g>
<defs>
<clipPath id="clip0_1337_16422">
<rect width="20" height="20" fill="white"/>
</clipPath>
</defs>
</svg>
