<svg width="113" height="30" viewBox="0 0 113 30" fill="none" xmlns="http://www.w3.org/2000/svg">
<path d="M17.5784 14.3754C17.591 13.3989 17.8504 12.4415 18.3324 11.5922C18.8144 10.7429 19.5035 10.0294 20.3354 9.51794C19.8069 8.76318 19.1097 8.14204 18.2992 7.70386C17.4886 7.26568 16.5871 7.02252 15.6662 6.99371C13.7016 6.7875 11.7971 8.16925 10.796 8.16925C9.77558 8.16925 8.23427 7.01419 6.57451 7.04833C5.50094 7.08301 4.45466 7.3952 3.53761 7.95448C2.62057 8.51375 1.86403 9.30103 1.34172 10.2396C-0.920781 14.1569 0.766843 19.9139 2.93417 23.0804C4.01853 24.6309 5.28583 26.3628 6.94409 26.3014C8.56679 26.2341 9.17284 25.2667 11.1316 25.2667C13.0721 25.2667 13.6407 26.3014 15.3326 26.2624C17.0739 26.2341 18.1709 24.705 19.2172 23.1398C19.9964 22.035 20.5959 20.814 20.9936 19.5219C19.982 19.094 19.1187 18.3779 18.5114 17.4627C17.9041 16.5475 17.5796 15.4737 17.5784 14.3754Z" fill="#282739"/>
<path d="M14.3827 4.91153C15.3321 3.77182 15.7999 2.30692 15.6866 0.827906C14.2361 0.980247 12.8963 1.67347 11.9341 2.76945C11.4636 3.30487 11.1033 3.92776 10.8737 4.60251C10.6442 5.27727 10.5498 5.99065 10.5961 6.70189C11.3216 6.70936 12.0393 6.55211 12.6952 6.24199C13.3511 5.93187 13.9281 5.47697 14.3827 4.91153V4.91153Z" fill="#282739"/>
<path d="M37.0469 22.5325H31.7219L30.4431 26.3085H28.1876L33.2314 12.3383H35.5748L40.6186 26.3085H38.3247L37.0469 22.5325ZM32.2734 20.7901H36.4944L34.4136 14.6619H34.3553L32.2734 20.7901Z" fill="#282739"/>
<path d="M51.5114 21.2163C51.5114 24.3815 49.8173 26.4151 47.2608 26.4151C46.6132 26.4489 45.9691 26.2998 45.4024 25.9846C44.8356 25.6694 44.369 25.2011 44.0561 24.6331H44.0077V29.678H41.917V16.1231H43.9407V17.8172H43.9792C44.3065 17.2519 44.7809 16.7859 45.352 16.4689C45.9231 16.1518 46.5695 15.9954 47.2223 16.0165C49.8075 16.0165 51.5114 18.06 51.5114 21.2163ZM49.3625 21.2163C49.3625 19.1542 48.2968 17.7985 46.6709 17.7985C45.0734 17.7985 43.999 19.1828 43.999 21.2163C43.999 23.2686 45.0734 24.643 46.6709 24.643C48.2968 24.643 49.3625 23.2971 49.3625 21.2163H49.3625Z" fill="#282739"/>
<path d="M62.7226 21.2163C62.7226 24.3815 61.0279 26.4151 58.4714 26.4151C57.8238 26.4489 57.1797 26.2998 56.613 25.9846C56.0462 25.6694 55.5796 25.2011 55.2667 24.6331H55.2183V29.678H53.1276V16.1231H55.1513V17.8172H55.1898C55.5171 17.2519 55.9915 16.7859 56.5626 16.4689C57.1337 16.1518 57.7801 15.9954 58.4329 16.0165C61.018 16.0165 62.7226 18.06 62.7226 21.2163ZM60.5731 21.2163C60.5731 19.1542 59.5074 17.7985 57.8814 17.7985C56.284 17.7985 55.2096 19.1828 55.2096 21.2163C55.2096 23.2686 56.284 24.643 57.8814 24.643C59.5074 24.643 60.5731 23.2971 60.5731 21.2163V21.2163Z" fill="#282739"/>
<path d="M70.1305 22.4162C70.2854 23.8016 71.6313 24.7112 73.4704 24.7112C75.2326 24.7112 76.5004 23.8016 76.5004 22.5524C76.5004 21.468 75.7357 20.8188 73.9252 20.3738L72.1147 19.9377C69.5494 19.318 68.3584 18.1183 68.3584 16.1715C68.3584 13.7611 70.459 12.1055 73.4407 12.1055C76.3938 12.1055 78.4175 13.7611 78.4856 16.1715H76.3751C76.2488 14.7774 75.0963 13.9358 73.4121 13.9358C71.7279 13.9358 70.5755 14.7873 70.5755 16.0265C70.5755 17.0142 71.3116 17.5954 73.1122 18.0403L74.6514 18.4182C77.5177 19.0961 78.7075 20.2475 78.7075 22.2909C78.7075 24.9045 76.6267 26.5415 73.3154 26.5415C70.2173 26.5415 68.1255 24.943 67.9903 22.4161L70.1305 22.4162Z" fill="#282739"/>
<path d="M83.222 13.713V16.1234H85.1589V17.779H83.222V23.3941C83.222 24.2664 83.6098 24.6729 84.4613 24.6729C84.6912 24.6689 84.9208 24.6528 85.149 24.6246V26.2703C84.7662 26.3418 84.3771 26.3742 83.9878 26.367C81.9256 26.367 81.1214 25.5924 81.1214 23.6171V17.779H79.6405V16.1234H81.1214V13.713H83.222Z" fill="#282739"/>
<path d="M86.2794 21.2164C86.2794 18.0117 88.1668 15.9979 91.11 15.9979C94.0632 15.9979 95.9418 18.0116 95.9418 21.2164C95.9418 24.4299 94.0731 26.4349 91.11 26.4349C88.1481 26.4349 86.2794 24.4299 86.2794 21.2164ZM93.8116 21.2164C93.8116 19.018 92.8041 17.7205 91.11 17.7205C89.416 17.7205 88.4085 19.0279 88.4085 21.2164C88.4085 23.4235 89.416 24.7111 91.11 24.7111C92.8041 24.7111 93.8116 23.4235 93.8116 21.2164H93.8116Z" fill="#282739"/>
<path d="M97.6657 16.123H99.6597V17.8566H99.7081C99.843 17.3152 100.16 16.8367 100.606 16.5015C101.052 16.1664 101.6 15.9951 102.158 16.0164C102.399 16.0156 102.639 16.0417 102.874 16.0944V18.05C102.57 17.957 102.253 17.9143 101.935 17.9236C101.631 17.9113 101.328 17.9649 101.047 18.0806C100.766 18.1964 100.514 18.3716 100.307 18.5942C100.1 18.8168 99.9433 19.0816 99.8483 19.3703C99.7533 19.6591 99.722 19.965 99.7563 20.267V26.3084H97.6656L97.6657 16.123Z" fill="#282739"/>
<path d="M112.514 23.317C112.232 25.166 110.432 26.4349 108.128 26.4349C105.165 26.4349 103.326 24.4497 103.326 21.2647C103.326 18.0699 105.175 15.9979 108.04 15.9979C110.858 15.9979 112.63 17.9337 112.63 21.0219V21.7382H105.436V21.8646C105.403 22.2394 105.45 22.617 105.574 22.9724C105.698 23.3277 105.896 23.6526 106.155 23.9254C106.414 24.1983 106.729 24.4129 107.077 24.555C107.425 24.6971 107.8 24.7634 108.176 24.7496C108.67 24.7959 109.166 24.6814 109.59 24.4233C110.014 24.1652 110.343 23.7772 110.528 23.317L112.514 23.317ZM105.446 20.277H110.538C110.557 19.94 110.506 19.6027 110.388 19.2864C110.27 18.97 110.089 18.6814 109.854 18.4387C109.619 18.1959 109.337 18.0043 109.025 17.8758C108.713 17.7473 108.378 17.6847 108.04 17.692C107.7 17.6899 107.362 17.7553 107.047 17.8844C106.732 18.0135 106.446 18.2037 106.204 18.4441C105.963 18.6844 105.772 18.9701 105.642 19.2847C105.512 19.5993 105.445 19.9366 105.446 20.2771V20.277Z" fill="#282739"/>
<path d="M30.7876 4.66009H31.6852C31.8397 4.67933 31.9965 4.66635 32.1458 4.62198C32.295 4.57761 32.4335 4.5028 32.5524 4.40226C32.6713 4.30173 32.7681 4.17766 32.8366 4.03786C32.9052 3.89807 32.9441 3.74558 32.9508 3.59002C32.9508 2.97095 32.485 2.57104 31.6951 2.57104C31.5368 2.54892 31.3756 2.55874 31.2212 2.59993C31.0667 2.64111 30.9221 2.71283 30.7958 2.81083C30.6696 2.90883 30.5642 3.03115 30.486 3.17054C30.4078 3.30994 30.3583 3.46359 30.3404 3.62243H29.3549C29.3719 3.3341 29.448 3.05234 29.5786 2.7947C29.7092 2.53706 29.8914 2.30906 30.1139 2.1249C30.3364 1.94073 30.5944 1.80434 30.8719 1.72421C31.1494 1.64409 31.4405 1.62195 31.7269 1.65917C33.0485 1.65917 33.9792 2.3991 33.9792 3.46422C33.9823 3.82105 33.8629 4.16814 33.6409 4.44756C33.419 4.72699 33.1079 4.92183 32.7597 4.99957V5.07867C33.1725 5.09698 33.5614 5.27801 33.8411 5.58219C34.1209 5.88636 34.2689 6.28893 34.2527 6.7019C34.2221 6.99877 34.1326 7.28657 33.9894 7.5484C33.8462 7.81024 33.6521 8.04085 33.4186 8.22672C33.1851 8.41259 32.9169 8.54998 32.6296 8.63083C32.3423 8.71168 32.0418 8.73437 31.7456 8.69757C31.4488 8.73803 31.1469 8.71832 30.8579 8.63962C30.5689 8.56091 30.2987 8.42482 30.0634 8.23946C29.8281 8.0541 29.6326 7.82326 29.4884 7.56071C29.3442 7.29815 29.2544 7.00926 29.2242 6.71124H30.2251C30.2855 7.35339 30.8755 7.76762 31.7456 7.76762C32.6157 7.76762 33.1837 7.30235 33.1837 6.64647C33.1837 5.98124 32.6487 5.57145 31.7137 5.57145H30.7876V4.66009Z" fill="#282739"/>
<path d="M35.3899 7.10221C35.3899 6.19035 36.0699 5.66466 37.274 5.58994L38.6462 5.51085V5.07359C38.6462 4.53855 38.2936 4.23643 37.6091 4.23643C37.051 4.23643 36.6654 4.44133 36.5533 4.79949H35.5854C35.6876 3.92937 36.5072 3.37126 37.6563 3.37126C38.9264 3.37126 39.6427 4.00351 39.6427 5.07359V8.53483H38.6792V7.82292H38.6001C38.4395 8.07829 38.2141 8.28647 37.9467 8.42621C37.6794 8.56594 37.3798 8.63223 37.0785 8.6183C36.8658 8.64042 36.6509 8.61773 36.4475 8.55169C36.2442 8.48566 36.0569 8.37774 35.8978 8.2349C35.7387 8.09206 35.6113 7.91747 35.5238 7.72238C35.4363 7.52728 35.3907 7.31602 35.3899 7.10221V7.10221ZM38.6462 6.66935V6.24583L37.4091 6.32493C36.7115 6.37162 36.3951 6.60892 36.3951 7.05552C36.3951 7.51144 36.7906 7.77676 37.3344 7.77676C37.4938 7.7929 37.6548 7.77682 37.8078 7.72947C37.9608 7.68212 38.1027 7.60447 38.2251 7.50115C38.3475 7.39783 38.4478 7.27094 38.5202 7.12804C38.5925 6.98514 38.6354 6.82915 38.6462 6.66935V6.66935Z" fill="#282739"/>
<path d="M42.2959 4.31057V8.53481H41.2961V3.46902H44.6316V4.31052L42.2959 4.31057Z" fill="#282739"/>
<path d="M50.6905 6.00052C50.6905 7.61002 49.8764 8.61912 48.5976 8.61912C48.2837 8.64056 47.9702 8.57186 47.694 8.42112C47.4178 8.27037 47.1904 8.04385 47.0386 7.76823H46.9595V10.2198H45.9598V3.46983H46.9222V4.30702H46.9969C47.1514 4.02177 47.3817 3.78477 47.6625 3.6222C47.9432 3.45964 48.2634 3.37783 48.5877 3.38581C49.8764 3.38578 50.6905 4.39047 50.6905 6.00052ZM49.6622 6.00052C49.6622 4.93046 49.1557 4.28391 48.3087 4.28391C47.4672 4.28391 46.9409 4.94418 46.9409 6.00492C46.9409 7.06071 47.4671 7.72154 48.3043 7.72154C49.1557 7.72153 49.6622 7.07498 49.6622 6.00052Z" fill="#282739"/>
<path d="M52.022 10.3492V9.48843C52.1302 9.50218 52.2392 9.50842 52.3482 9.5071C52.5612 9.52288 52.7726 9.45945 52.9417 9.32897C53.1108 9.1985 53.2257 9.01017 53.2645 8.80013L53.3392 8.55349L51.5056 3.46902H52.5943L53.8644 7.49276H53.9435L55.2091 3.46902H56.2693L54.3808 8.74411C53.9479 9.97677 53.4689 10.3723 52.4362 10.3723C52.3527 10.3723 52.1154 10.3629 52.022 10.3492Z" fill="#282739"/>
<path d="M57.0483 7.09712H58.0437C58.1415 7.54375 58.5601 7.77662 59.1456 7.77662C59.8114 7.77662 60.2201 7.48329 60.2201 7.02737C60.2201 6.53903 59.8532 6.30613 59.1456 6.30613H58.3876V5.52939H59.1324C59.7367 5.52939 60.0443 5.29703 60.0443 4.87352C60.0443 4.50163 59.7466 4.21764 59.1324 4.21764C58.5732 4.21764 58.1646 4.45495 58.0997 4.85485H57.1362C57.2083 4.39534 57.4578 3.98244 57.8311 3.70498C58.2044 3.42751 58.6717 3.30764 59.1324 3.37115C60.3366 3.37115 61.0254 3.91552 61.0254 4.77135C61.031 5.00968 60.9547 5.24271 60.8091 5.43149C60.6635 5.62026 60.4575 5.75334 60.2256 5.80847V5.88757C60.5017 5.92319 60.7552 6.05893 60.9378 6.26904C61.1205 6.47915 61.2197 6.749 61.2166 7.0274C61.2166 7.9904 60.397 8.62755 59.1456 8.62755C58.0393 8.62752 57.1406 8.1205 57.0483 7.09712Z" fill="#282739"/>
<path d="M62.6564 8.53481V3.46902H63.6473V6.95334H63.7264L66.061 3.46903H67.052V8.53482H66.061V5.03184H65.9863L63.6473 8.53484L62.6564 8.53481Z" fill="#282739"/>
<path d="M72.5111 4.3112H70.9159V8.53544H69.915V4.3112H68.3198V3.4697H72.5111V4.3112Z" fill="#282739"/>
<path d="M77.8966 7.16713C77.7604 7.63009 77.4658 8.03048 77.0644 8.29836C76.663 8.56623 76.1802 8.68457 75.7004 8.63271C75.3667 8.64152 75.035 8.57759 74.7284 8.44537C74.4219 8.31315 74.1477 8.1158 73.9251 7.86702C73.7024 7.61824 73.5366 7.32399 73.4391 7.00469C73.3416 6.68538 73.3147 6.34868 73.3603 6.01796C73.3159 5.68621 73.3432 5.34879 73.4405 5.02853C73.5378 4.70827 73.7028 4.41266 73.9243 4.1617C74.1458 3.91075 74.4186 3.7103 74.7242 3.57394C75.0299 3.43759 75.3613 3.36849 75.696 3.37135C77.1056 3.37135 77.957 4.33435 77.957 5.9251V6.27396H74.3799V6.32999C74.364 6.51593 74.3873 6.70313 74.4481 6.87955C74.5089 7.05598 74.606 7.21773 74.733 7.3544C74.8601 7.49108 75.0143 7.59966 75.1858 7.67317C75.3574 7.74668 75.5424 7.78349 75.729 7.78124C75.968 7.80981 76.2101 7.76668 76.4245 7.65733C76.6389 7.54797 76.8159 7.37733 76.9331 7.1671L77.8966 7.16713ZM74.3798 5.53457H76.9375C76.9501 5.36463 76.927 5.19394 76.8698 5.03344C76.8125 4.87294 76.7224 4.72619 76.605 4.60261C76.4877 4.47903 76.3459 4.38135 76.1885 4.31585C76.0312 4.25035 75.862 4.21846 75.6916 4.22225C75.5186 4.2199 75.347 4.25224 75.1867 4.31736C75.0265 4.38249 74.8809 4.47907 74.7586 4.60141C74.6363 4.72375 74.5398 4.86936 74.4748 5.02964C74.4097 5.18992 74.3774 5.36161 74.3799 5.53457H74.3798Z" fill="#282739"/>
<path d="M82.135 3.46902H84.4191C85.4101 3.46902 85.9912 3.97109 85.9912 4.75714C85.9928 5.00656 85.9086 5.24895 85.7528 5.44374C85.597 5.63852 85.3791 5.7739 85.1354 5.82721V5.90631C85.4312 5.925 85.7086 6.05661 85.9102 6.27394C86.1118 6.49128 86.2222 6.77774 86.2186 7.07416C86.2186 7.958 85.554 8.53479 84.4422 8.53479H82.135V3.46902ZM83.126 4.23641V5.54816H84.117C84.7212 5.54816 85.0102 5.31581 85.0102 4.88734C85.0102 4.49238 84.7586 4.2364 84.2279 4.2364L83.126 4.23641ZM83.126 6.28317V7.76743H84.3115C84.9025 7.76743 85.2189 7.50651 85.2189 7.0275C85.2189 6.52049 84.8608 6.28318 84.1862 6.28318L83.126 6.28317Z" fill="#282739"/>
</svg>
