<svg width="131" height="32" viewBox="0 0 131 32" fill="none" xmlns="http://www.w3.org/2000/svg">
<path d="M108.926 26.6936H111.015V12.6997H108.926V26.6936ZM127.74 17.7406L125.346 23.8076H125.274L122.789 17.7406H120.539L124.265 26.2204L122.141 30.9372H124.32L130.063 17.7406H127.74ZM115.895 25.1041C115.209 25.1041 114.256 24.7621 114.256 23.9156C114.256 22.8355 115.445 22.4215 116.47 22.4215C117.389 22.4215 117.82 22.6195 118.378 22.8898C118.216 24.1859 117.1 25.1041 115.895 25.1041ZM116.146 17.4344C114.634 17.4344 113.068 18.1008 112.42 19.5771L114.274 20.351C114.67 19.5771 115.408 19.3248 116.182 19.3248C117.262 19.3248 118.361 19.9732 118.378 21.1254V21.2693C118 21.0532 117.191 20.7293 116.2 20.7293C114.202 20.7293 112.167 21.8272 112.167 23.8797C112.167 25.7521 113.806 26.9585 115.642 26.9585C117.046 26.9585 117.82 26.3284 118.307 25.5904H118.378V26.6704H120.395V21.3051C120.395 18.821 118.541 17.4344 116.146 17.4344ZM103.237 19.4441H100.267V14.6473H103.237C104.799 14.6473 105.686 15.9402 105.686 17.0457C105.686 18.1301 104.799 19.4441 103.237 19.4441ZM103.184 12.6997H98.1788V26.6936H100.267V21.3917H103.184C105.499 21.3917 107.774 19.7157 107.774 17.0457C107.774 14.3758 105.499 12.6997 103.184 12.6997ZM75.8915 25.1067C74.4485 25.1067 73.2403 23.8985 73.2403 22.2391C73.2403 20.5623 74.4485 19.3357 75.8915 19.3357C77.3162 19.3357 78.4343 20.5623 78.4343 22.2391C78.4343 23.8985 77.3162 25.1067 75.8915 25.1067ZM78.29 18.5242H78.2178C77.7491 17.9652 76.8469 17.4603 75.711 17.4603C73.3304 17.4603 71.1485 19.5521 71.1485 22.2391C71.1485 24.9082 73.3304 26.9821 75.711 26.9821C76.8469 26.9821 77.7491 26.4771 78.2178 25.9004H78.29V26.5855C78.29 28.4073 77.3162 29.381 75.7472 29.381C74.4669 29.381 73.6733 28.461 73.3484 27.6857L71.5272 28.4431C72.0502 29.7054 73.4389 31.2565 75.7472 31.2565C78.1999 31.2565 80.2738 29.8134 80.2738 26.297V17.7489H78.29V18.5242ZM81.7163 26.6936H83.8083V12.6992H81.7163V26.6936ZM86.8922 22.0769C86.8381 20.2373 88.3169 19.2998 89.3808 19.2998C90.2109 19.2998 90.9139 19.7143 91.1479 20.3099L86.8922 22.0769ZM93.3844 20.4901C92.9882 19.4257 91.7792 17.4603 89.3086 17.4603C86.856 17.4603 84.8183 19.3899 84.8183 22.2212C84.8183 24.8903 86.8381 26.9821 89.543 26.9821C91.7255 26.9821 92.9882 25.6476 93.5109 24.8723L91.8878 23.7901C91.3471 24.5837 90.6072 25.1067 89.543 25.1067C88.4791 25.1067 87.7218 24.6196 87.2347 23.6641L93.6005 21.0309L93.3844 20.4901ZM42.6663 18.9211V20.9408H47.4993C47.355 22.0769 46.9763 22.9064 46.3992 23.4836C45.6961 24.1871 44.5959 24.9624 42.6663 24.9624C39.6906 24.9624 37.3644 22.564 37.3644 19.5884C37.3644 16.6128 39.6906 14.214 42.6663 14.214C44.2714 14.214 45.4433 14.8454 46.3091 15.6569L47.7337 14.2324C46.5256 13.0779 44.9203 12.1943 42.6663 12.1943C38.5904 12.1943 35.1641 15.5126 35.1641 19.5884C35.1641 23.6641 38.5904 26.9821 42.6663 26.9821C44.8666 26.9821 46.5256 26.2611 47.8238 24.9082C49.1584 23.5737 49.5734 21.6982 49.5734 20.1836C49.5734 19.7143 49.5374 19.2819 49.4649 18.9211H42.6663ZM55.0681 25.1067C53.625 25.1067 52.3806 23.9164 52.3806 22.2212C52.3806 20.508 53.625 19.3357 55.0681 19.3357C56.5105 19.3357 57.755 20.508 57.755 22.2212C57.755 23.9164 56.5105 25.1067 55.0681 25.1067ZM55.0681 17.4603C52.4348 17.4603 50.2887 19.462 50.2887 22.2212C50.2887 24.9624 52.4348 26.9821 55.0681 26.9821C57.7008 26.9821 59.8469 24.9624 59.8469 22.2212C59.8469 19.462 57.7008 17.4603 55.0681 17.4603ZM65.4933 25.1067C64.0508 25.1067 62.8063 23.9164 62.8063 22.2212C62.8063 20.508 64.0508 19.3357 65.4933 19.3357C66.9359 19.3357 68.1803 20.508 68.1803 22.2212C68.1803 23.9164 66.9359 25.1067 65.4933 25.1067ZM65.4933 17.4603C62.8601 17.4603 60.7144 19.462 60.7144 22.2212C60.7144 24.9624 62.8601 26.9821 65.4933 26.9821C68.1261 26.9821 70.2722 24.9624 70.2722 22.2212C70.2722 19.462 68.1261 17.4603 65.4933 17.4603Z" fill="#282739"/>
<path d="M0.98795 29.3684L0.904778 29.2888C0.579031 28.9442 0.386719 28.409 0.386719 27.7159V27.879V3.12233C0.386719 3.12009 0.386719 3.11841 0.386719 3.11662C0.386719 3.11875 0.386719 3.12054 0.386719 3.12278V3.28632C0.386719 2.53587 0.610934 1.97058 0.986606 1.63162L14.8558 15.5005L0.98795 29.3684ZM0.386719 3.11528C0.386719 3.0536 0.388398 2.99371 0.391532 2.93472C0.388398 2.99326 0.386719 3.0536 0.386719 3.11528ZM0.391532 2.93203C0.391532 2.93125 0.391531 2.93035 0.391867 2.92946C0.391531 2.93035 0.391532 2.93125 0.391532 2.93203ZM0.391867 2.9242C0.391867 2.92375 0.391867 2.9233 0.391867 2.92285C0.391867 2.9233 0.391867 2.92375 0.391867 2.9242Z" fill="url(#paint0_linear_1337_16139)"/>
<path d="M19.4778 20.2889L19.5833 20.2291L25.0604 17.117C25.5826 16.8201 25.9306 16.4602 26.1042 16.0794C25.9311 16.4602 25.5829 16.8206 25.0604 17.1174L19.5833 20.2295L19.4778 20.2889ZM19.4792 20.1249L14.8555 15.5005L19.4787 10.8768L25.0604 14.0478C25.7692 14.4506 26.1672 14.9697 26.2336 15.5C26.2336 15.5005 26.2336 15.5014 26.2336 15.5022C26.1672 16.0313 25.7692 16.5508 25.0604 16.9535L19.4792 20.1249Z" fill="url(#paint1_linear_1337_16139)"/>
<path d="M1.97493 29.8965C1.58751 29.8965 1.24945 29.7706 0.985827 29.5327L0.986277 29.5322C1.2499 29.7701 1.5884 29.8965 1.97583 29.8965C2.00941 29.8965 2.04355 29.8956 2.07814 29.8939C2.0431 29.8956 2.00851 29.8965 1.97493 29.8965ZM1.97538 29.7325C1.58796 29.7329 1.2499 29.6066 0.986277 29.3687V29.3683L14.8541 15.5004L19.4778 20.1249L3.22945 29.3569C2.77989 29.6118 2.35396 29.7325 1.97538 29.7325ZM0.982358 29.5297C0.957843 29.5074 0.933776 29.4838 0.910156 29.4592L0.982358 29.5297Z" fill="url(#paint2_linear_1337_16139)"/>
<path d="M14.8575 15.5004L0.988281 1.63153C1.2519 1.3941 1.58951 1.26817 1.97649 1.26817C2.35608 1.26817 2.78235 1.38929 3.2328 1.64462L19.4807 10.8767L14.8575 15.5004ZM19.5853 10.7722L3.2328 1.48119C2.78235 1.22574 2.35608 1.10462 1.97649 1.10462C1.9747 1.10462 1.97347 1.10462 1.97168 1.10462C1.97392 1.10462 1.97559 1.10462 1.97828 1.10462C2.35697 1.10462 2.7828 1.22529 3.2328 1.48074L19.5853 10.7722Z" fill="url(#paint3_linear_1337_16139)"/>
<path d="M2.08129 29.894C2.43323 29.8739 2.82289 29.7528 3.23259 29.5206L19.4796 20.289L3.23259 29.5206C2.82323 29.7532 2.43323 29.8739 2.08129 29.894ZM0.988974 29.5328L0.985505 29.5298C0.986736 29.5307 0.988078 29.5319 0.988974 29.5328ZM0.913303 29.4594L0.90625 29.4524V29.452C0.908937 29.4546 0.911064 29.4571 0.913303 29.4594Z" fill="white"/>
<path d="M19.4766 20.2889L19.582 20.2291L19.4766 20.2889Z" fill="url(#paint4_linear_1337_16139)"/>
<path d="M1.97897 29.8965C1.59155 29.8965 1.25304 29.7701 0.989423 29.5322L0.988974 29.5327C0.988078 29.5318 0.986736 29.5306 0.985505 29.5297L0.913303 29.4592C0.911064 29.457 0.908937 29.4544 0.90625 29.4519L0.989423 29.3687C1.25304 29.6066 1.5911 29.7329 1.97853 29.7325C2.35711 29.7325 2.78304 29.6118 3.23259 29.3569L19.481 20.1249L19.5851 20.229L19.4796 20.2889L3.23259 29.5205C2.82289 29.7526 2.43323 29.8738 2.08129 29.8939C2.0467 29.8956 2.01256 29.8965 1.97897 29.8965Z" fill="url(#paint5_linear_1337_16139)"/>
<path d="M0.904777 29.4525C0.579031 29.1079 0.386719 28.5727 0.386719 27.8796V27.8792C0.386719 28.5727 0.579031 29.1074 0.904777 29.4521V29.4525Z" fill="white"/>
<path d="M0.904778 29.4521C0.579031 29.1075 0.386719 28.5727 0.386719 27.8793V27.7162C0.386719 28.4092 0.579031 28.9444 0.904778 29.2891L0.987951 29.3686L0.904778 29.4521Z" fill="url(#paint6_linear_1337_16139)"/>
<path d="M0.90625 29.4521L0.989424 29.3686V29.369L0.90625 29.4521Z" fill="url(#paint7_linear_1337_16139)"/>
<path d="M26.1055 16.0793C26.1916 15.8904 26.2349 15.6963 26.2349 15.5021C26.2349 15.5017 26.2349 15.5013 26.2349 15.5013C26.2349 15.6958 26.1916 15.8899 26.1055 16.0793Z" fill="white"/>
<path d="M19.5846 20.2291L19.4805 20.125L25.0617 16.9535C25.7705 16.5509 26.1685 16.0314 26.235 15.5022C26.235 15.6964 26.1916 15.8905 26.1056 16.0795C25.9319 16.4603 25.5839 16.8202 25.0617 17.1171L19.5846 20.2291Z" fill="url(#paint8_linear_1337_16139)"/>
<path d="M26.2328 15.5004V15.4999C26.2324 14.9144 25.8411 14.3289 25.0596 13.8846L19.5825 10.7726H19.582L19.5825 10.7722L25.0596 13.8842C25.842 14.3285 26.2337 14.9148 26.2328 15.5004Z" fill="#282739"/>
<path d="M26.2354 15.5C26.1689 14.9696 25.771 14.4506 25.0621 14.0478L19.4805 10.8768L19.5846 10.7727H19.585L25.0621 13.8847C25.8436 14.329 26.2349 14.9144 26.2354 15.5Z" fill="url(#paint9_linear_1337_16139)"/>
<path d="M0.386719 3.1167C0.386719 3.11625 0.386719 3.1158 0.386719 3.11536C0.386719 3.1158 0.386719 3.11625 0.386719 3.1167ZM0.391532 2.9348C0.391532 2.9339 0.391532 2.93301 0.391532 2.93211C0.391532 2.93301 0.391532 2.9339 0.391532 2.9348ZM0.391867 2.92954C0.391867 2.92774 0.391867 2.92607 0.391867 2.92427C0.391867 2.92607 0.391867 2.92774 0.391867 2.92954ZM0.391867 2.92293C0.45668 1.77297 1.08198 1.10872 1.96653 1.1048C1.58302 1.10704 1.24899 1.23297 0.987501 1.4686V1.46816L0.984367 1.47129C0.95683 1.49614 0.930636 1.52245 0.904778 1.54954C0.610934 1.86039 0.425561 2.32607 0.391867 2.92293Z" fill="#282739"/>
<path d="M0.386719 3.28625V3.12271C0.386719 3.12047 0.386719 3.11868 0.386719 3.11655C0.386719 3.11611 0.386719 3.11566 0.386719 3.11521C0.386719 3.05353 0.388398 2.9932 0.391532 2.93465C0.391532 2.93376 0.391532 2.93286 0.391532 2.93197C0.391532 2.93118 0.391531 2.93029 0.391867 2.92939C0.391867 2.9276 0.391867 2.92592 0.391867 2.92413C0.391867 2.92368 0.391867 2.92323 0.391867 2.92279C0.425561 2.32592 0.610935 1.86025 0.904779 1.54939L0.986608 1.63155C0.610935 1.97051 0.386719 2.53581 0.386719 3.28625ZM0.984369 1.47114L0.987503 1.46801C0.986607 1.46935 0.985264 1.47025 0.984369 1.47114Z" fill="url(#paint10_linear_1337_16139)"/>
<path d="M19.4805 10.8768L3.23259 1.64478C2.78215 1.38944 2.35588 1.26832 1.97629 1.26832C1.58931 1.26832 1.2517 1.39426 0.988079 1.63168L0.90625 1.54952C0.932108 1.52243 0.958302 1.49612 0.985839 1.47127C0.986735 1.47037 0.988078 1.46948 0.988974 1.46858C1.25047 1.23295 1.5845 1.10702 1.968 1.10478C1.9689 1.10478 1.97013 1.10478 1.97147 1.10478C1.97327 1.10478 1.9745 1.10478 1.97629 1.10478C2.35588 1.10478 2.78215 1.2259 3.23259 1.48134L19.5851 10.7724L19.5846 10.7727L19.4805 10.8768Z" fill="url(#paint11_linear_1337_16139)"/>
<path d="M37.9121 4.26841C37.9252 5.33095 37.7123 6.18796 37.2749 6.83867H40.6703V1.77248H37.9121V4.26841ZM36.3642 9.08923H35.5391V6.83867H36.1958C36.7773 6.33752 37.0616 5.4814 37.0498 4.26841V0.947367H41.5339V6.83867H42.2839V9.08923H41.4584V7.66378H36.3642V9.08923Z" fill="#282739"/>
<path d="M37.9147 4.26829L37.8027 4.26963L37.8036 4.36008C37.8032 5.36542 37.5933 6.16825 37.1844 6.77597L37.0673 6.95049H40.7848V1.66041H37.8027V4.26918V4.26963L37.9147 4.26829H38.0266V1.88429H40.5609V6.72661H37.2775V6.83855L37.3703 6.90067C37.8105 6.2456 38.0275 5.39553 38.0275 4.36008L38.0266 4.26694L37.9147 4.26829H38.0266H37.9147ZM36.3667 9.08911V8.97717H35.6536V6.95049H36.1984H36.2399L36.2714 6.9234C36.8765 6.40131 37.1648 5.53153 37.1648 4.34172L37.1643 4.26739V4.26829V1.05918H41.4245V6.95049H42.1745V8.97717H41.5729V7.66366V7.55172H36.2548V9.08911H36.3667V8.97717V9.08911H36.4787V7.7756H41.349V9.08911V9.20105H42.2865H42.3984V6.72661H41.6484V0.835302H36.9404V4.26873V4.26918L36.9409 4.34172C36.9404 5.50008 36.6597 6.29463 36.1253 6.75325L36.1984 6.83855V6.72661H35.5416H35.4297V9.20105H36.3667H36.4787V9.08911H36.3667Z" fill="#282739"/>
<path d="M44.7282 6.23334C45.2257 6.73662 45.8336 6.98804 46.5529 6.98804C47.2721 6.98804 47.8809 6.73662 48.3771 6.23334C48.8748 5.73005 49.1239 5.08673 49.1239 4.30539C49.1239 3.52405 48.8748 2.88073 48.3771 2.37744C47.8809 1.87416 47.2721 1.62274 46.5529 1.62274C45.8336 1.62274 45.2257 1.87416 44.7282 2.37744C44.2318 2.88073 43.9826 3.52405 43.9826 4.30539C43.9826 5.08673 44.2318 5.73005 44.7282 6.23334ZM49.0156 6.79561C48.3553 7.47464 47.5345 7.8136 46.5529 7.8136C45.5712 7.8136 44.75 7.47464 44.091 6.79561C43.4308 6.11737 43.1016 5.28711 43.1016 4.30539C43.1016 3.32367 43.4308 2.4933 44.091 1.81516C44.75 1.13602 45.5712 0.796732 46.5529 0.796732C47.5288 0.796732 48.3479 1.13781 49.0111 1.81953C49.6736 2.50125 50.005 3.32983 50.005 4.30539C50.005 5.28711 49.6749 6.11737 49.0156 6.79561Z" fill="#282739"/>
<path d="M44.7268 6.23358L44.6472 6.31227C45.1627 6.8357 45.8059 7.10156 46.5516 7.10022C47.2966 7.10156 47.9412 6.8357 48.4553 6.31227C48.9744 5.78839 49.2354 5.11059 49.2346 4.30563C49.2354 3.50067 48.9744 2.82287 48.4553 2.29899C47.9412 1.77556 47.2966 1.5097 46.5516 1.51104C45.8059 1.5097 45.1627 1.77556 44.6472 2.29899C44.1295 2.82287 43.8685 3.50067 43.8694 4.30563C43.8685 5.11059 44.1295 5.78839 44.6472 6.31227L44.7268 6.23358L44.8069 6.15488C44.3319 5.67164 44.0945 5.0638 44.0932 4.30563C44.0945 3.54746 44.3319 2.93962 44.8069 2.45638H44.8064C45.2856 1.97324 45.858 1.73627 46.5516 1.73492C47.2446 1.73627 47.8183 1.97324 48.2962 2.45638L48.2979 2.45817L48.2962 2.45638C48.7723 2.93962 49.0094 3.54746 49.0107 4.30563C49.0094 5.0638 48.7723 5.67164 48.2962 6.15488C47.8183 6.63802 47.2446 6.875 46.5516 6.87634C45.858 6.875 45.2856 6.63802 44.8064 6.15488L44.7268 6.23358ZM49.0143 6.79585L48.9342 6.71806C48.2927 7.3757 47.5074 7.70056 46.5516 7.7019C45.5953 7.70056 44.8103 7.3757 44.1697 6.71806C43.5295 6.05817 43.2134 5.26238 43.2122 4.30563C43.2134 3.34888 43.5295 2.55309 44.1697 1.89321C44.8103 1.23556 45.5953 0.910258 46.5516 0.908915C47.5017 0.910258 48.2849 1.2369 48.9299 1.89802C49.5726 2.56093 49.8905 3.35548 49.8918 4.30563C49.8905 5.26238 49.5735 6.05817 48.9342 6.71806L49.0143 6.79585L49.0946 6.87365C49.7733 6.17671 50.1165 5.3122 50.1156 4.30563C50.1165 3.30477 49.7724 2.44205 49.0903 1.74197C48.4081 1.03921 47.5538 0.683803 46.5516 0.685035C45.5441 0.683803 44.687 1.03753 44.0093 1.73761V1.73716C43.3293 2.43455 42.9874 3.29906 42.9883 4.30563C42.9874 5.3122 43.3293 6.17671 44.0093 6.8741V6.87365C44.687 7.57373 45.5441 7.92668 46.5516 7.92578C47.5586 7.92668 48.4156 7.57373 49.0946 6.87365L49.0143 6.79585Z" fill="#282739"/>
<path d="M54.3488 7.8136C53.3606 7.8136 52.532 7.47912 51.8629 6.80961C51.1926 6.14065 50.8594 5.3058 50.8594 4.30539C50.8594 3.30487 51.1926 2.47013 51.8629 1.80117C52.532 1.13166 53.3606 0.796732 54.3488 0.796732C55.3611 0.796732 56.184 1.16278 56.8158 1.89431L56.2146 2.47628C55.759 1.90696 55.1358 1.62274 54.3488 1.62274C53.6164 1.62274 52.9984 1.86979 52.4956 2.3639C51.9919 2.858 51.7405 3.50524 51.7405 4.30539C51.7405 5.10554 51.9919 5.75322 52.4956 6.24688C52.9984 6.74099 53.6164 6.98804 54.3488 6.98804C55.1555 6.98804 55.843 6.66308 56.4126 6.01293L57.0126 6.61282C56.7057 6.98188 56.3217 7.27438 55.8582 7.48953C55.396 7.70558 54.8919 7.8136 54.3488 7.8136Z" fill="#282739"/>
<path d="M54.3474 7.81384V7.7019C53.3842 7.70056 52.5905 7.37918 51.9407 6.73071C51.2914 6.08134 50.9709 5.28119 50.97 4.30563C50.9709 3.33007 51.2914 2.52992 51.9407 1.88056C52.5905 1.23164 53.3842 0.910261 54.3474 0.908917C55.3331 0.910708 56.1167 1.25963 56.7296 1.96754L56.8145 1.89455L56.7367 1.81407L56.1355 2.39649L56.2133 2.47653L56.3007 2.40657C55.8258 1.81104 55.1608 1.50936 54.3474 1.51104C53.5896 1.51015 52.9377 1.77041 52.416 2.2841C51.8891 2.7997 51.6258 3.48265 51.6272 4.30563C51.6258 5.12862 51.8891 5.81246 52.416 6.32716C52.9377 6.84085 53.5896 7.10112 54.3474 7.10022C55.1848 7.10156 55.9102 6.7578 56.4952 6.08705L56.4113 6.01317L56.3321 6.09231L56.9321 6.6922L57.0113 6.61306L56.9251 6.54186C56.6287 6.89772 56.2596 7.17936 55.8096 7.38835C55.3623 7.59735 54.8761 7.70145 54.3474 7.7019V7.81384V7.92578C54.9054 7.92578 55.4267 7.81473 55.9041 7.5913C56.3816 7.37 56.7796 7.06697 57.0974 6.68481L57.1625 6.60656L56.4905 5.93403L56.4057 5.84918L56.327 5.93929C55.7733 6.5694 55.1236 6.875 54.3474 6.87634C53.64 6.875 53.0571 6.64149 52.573 6.16709H52.5726C52.0916 5.69481 51.852 5.08306 51.8511 4.30563C51.852 3.52821 52.0916 2.91735 52.5726 2.44418H52.573C53.0571 1.96977 53.64 1.73627 54.3474 1.73492C55.1079 1.73672 55.6889 2.00347 56.1258 2.54649L56.2027 2.64276L56.8923 1.97504L56.9684 1.90149L56.8993 1.82156C56.2491 1.06597 55.3864 0.683805 54.3474 0.685037C53.3338 0.684142 52.4702 1.03272 51.7824 1.72227C51.0911 2.41048 50.7448 3.28071 50.7461 4.30563C50.7448 5.33056 51.0911 6.20078 51.7824 6.88944C52.4702 7.57854 53.3338 7.92668 54.3474 7.92578V7.81384Z" fill="#282739"/>
<path d="M60.505 7.66357H59.6415V1.77227H57.7656V0.947153H62.3809V1.77227H60.505V7.66357Z" fill="#282739"/>
<path d="M60.5037 7.66382V7.55188H59.7521V1.66057H57.8762V1.05934H62.2676V1.66057H60.3917V7.66382H60.5037V7.55188V7.66382H60.6156V1.88445H62.4915V0.947399V0.835459H57.6523V1.77251V1.88445H59.5282V7.77576H60.5037H60.6156V7.66382H60.5037Z" fill="#282739"/>
<path d="M64.2558 5.03645H66.4876L65.3901 2.00712H65.3529L64.2558 5.03645ZM62.3516 7.66357L64.8847 0.947153H65.8593L68.392 7.66357H67.4357L66.788 5.8432H63.9651L63.3083 7.66357H62.3516Z" fill="#282739"/>
<path d="M64.2536 5.03669V5.14863H66.6451L65.4661 1.89542H65.3507H65.272L64.0941 5.14863H64.2536V5.03669L64.359 5.0752L65.4562 2.04542L65.3507 2.00736V2.1193H65.3879V2.00736L65.2825 2.04542L66.3258 4.92475H64.2536V5.03669L64.359 5.0752L64.2536 5.03669ZM62.3494 7.66382L62.4543 7.70322L64.9598 1.05934H65.7792L68.2279 7.55188H67.5122L66.8649 5.7315H63.8842L63.2273 7.55188H62.3494V7.66382L62.4543 7.70322L62.3494 7.66382V7.77576H63.3061H63.3848L64.0416 5.95538H66.7071L67.3543 7.77576H68.3898H68.5515L65.9345 0.835459H64.8825H64.805L62.1875 7.77576H62.3494V7.66382Z" fill="#282739"/>
<path d="M69.3672 7.66357V0.947153H74.2265V7.66357H73.363V1.77227H70.2299V7.66357H69.3672Z" fill="#282739"/>
<path d="M69.3658 7.66382H69.4778V1.05934H74.1132V7.55188H73.4736V1.66057H70.1166V7.55188H69.3658V7.66382H69.4778H69.3658V7.77576H70.2286H70.3405V1.88445H73.2497V7.77576H74.2252H74.3371V0.835459H69.2539V7.77576H69.3658V7.66382Z" fill="#282739"/>
<path d="M75.7656 7.66357V0.947153H76.6285V3.82659H79.9867V0.947153H80.8498V7.66357H79.9867V4.63335H76.6285V7.66357H75.7656Z" fill="#282739"/>
<path d="M75.7643 7.66382H75.8762V1.05934H76.5152L76.5147 3.93878H80.0973V1.05934H80.7365V7.55188H80.0968L80.0973 4.52165H76.5147V7.55188H75.7643V7.66382H75.8762H75.7643V7.77576H76.6271H76.7391V4.74553H79.873V7.77576H80.8484H80.9603V0.835459H79.9853H79.873V3.7149H76.7386L76.7391 0.835459H75.7643H75.6523V7.77576H75.7643V7.66382Z" fill="#282739"/>
<path d="M83.5914 6.23334C84.0891 6.73662 84.6964 6.98804 85.4157 6.98804C86.1355 6.98804 86.7441 6.73662 87.2405 6.23334C87.7376 5.73005 87.9873 5.08673 87.9873 4.30539C87.9873 3.52405 87.7376 2.88073 87.2405 2.37744C86.7441 1.87416 86.1355 1.62274 85.4157 1.62274C84.6964 1.62274 84.0891 1.87416 83.5914 2.37744C83.0952 2.88073 82.8459 3.52405 82.8459 4.30539C82.8459 5.08673 83.0952 5.73005 83.5914 6.23334ZM87.8789 6.79561C87.2187 7.47464 86.3979 7.8136 85.4157 7.8136C84.4346 7.8136 83.6134 7.47464 82.9544 6.79561C82.2942 6.11737 81.9648 5.28711 81.9648 4.30539C81.9648 3.32367 82.2942 2.4933 82.9544 1.81516C83.6134 1.13602 84.4346 0.796732 85.4157 0.796732C86.3922 0.796732 87.2107 1.13781 87.8745 1.81953C88.537 2.50125 88.8684 3.32983 88.8684 4.30539C88.8684 5.28711 88.5383 6.11737 87.8789 6.79561Z" fill="#282739"/>
<path d="M83.5901 6.23358L83.5105 6.31227C84.0261 6.8357 84.6693 7.10156 85.4144 7.10022C86.1599 7.10156 86.804 6.8357 87.3187 6.31227C87.8378 5.78839 88.0988 5.11059 88.0979 4.30563C88.0988 3.50067 87.8378 2.82287 87.3187 2.29899C86.804 1.77556 86.1599 1.5097 85.4144 1.51104C84.6693 1.5097 84.0261 1.77556 83.5105 2.29899C82.9928 2.82287 82.7318 3.50067 82.7326 4.30563C82.7318 5.11059 82.9928 5.78839 83.5105 6.31227L83.5901 6.23358L83.6697 6.15488C83.1948 5.67164 82.9574 5.0638 82.9565 4.30563C82.9574 3.54746 83.1948 2.93962 83.6697 2.45638C84.149 1.97324 84.7214 1.73627 85.4144 1.73492C86.108 1.73627 86.6817 1.97324 87.1595 2.45638L87.1626 2.45996L87.1595 2.45638C87.6353 2.93962 87.8727 3.54746 87.8741 4.30563C87.8727 5.0638 87.6353 5.67164 87.1595 6.15488C86.6817 6.63802 86.108 6.875 85.4144 6.87634C84.7214 6.875 84.149 6.63802 83.6697 6.15488L83.5901 6.23358ZM87.8775 6.79585L87.797 6.71806C87.1556 7.3757 86.3707 7.70056 85.4144 7.7019C84.4585 7.70056 83.6736 7.3757 83.0331 6.71806L83.03 6.71458L83.0331 6.71806C82.3925 6.05817 82.0763 5.26238 82.0754 4.30563C82.0763 3.34888 82.3925 2.55309 83.0331 1.89321C83.6736 1.23556 84.4585 0.910258 85.4144 0.908915C86.3647 0.910258 87.1478 1.2369 87.7931 1.89802C88.4359 2.56093 88.7538 3.35548 88.7551 4.30563C88.7538 5.26238 88.4368 6.05817 87.797 6.71806L87.8775 6.79585L87.958 6.87365C88.6366 6.17671 88.9799 5.3122 88.979 4.30563C88.9799 3.30477 88.6354 2.44205 87.9537 1.74197C87.2715 1.03921 86.4166 0.683803 85.4144 0.685035C84.4074 0.683803 83.5504 1.03753 82.8726 1.73761V1.73716C82.1926 2.43455 81.8507 3.29906 81.8516 4.30563C81.8507 5.3122 82.1926 6.17671 82.8726 6.8741V6.87365C83.5504 7.57373 84.4074 7.92668 85.4144 7.92578C86.4219 7.92668 87.2789 7.57373 87.958 6.87365L87.8775 6.79585Z" fill="#282739"/>
<path d="M92.3984 7.66357V0.947153H93.2604V3.82659H96.6186V0.947153H97.4828V7.66357H96.6186V4.63335H93.2604V7.66357H92.3984Z" fill="#282739"/>
<path d="M92.3971 7.66382H92.509V1.05934H93.1471V3.93878H96.7292V1.05934H97.3695V7.55188H96.7292V4.52165H93.1471V7.55188H92.3971V7.66382H92.509H92.3971V7.77576H93.259H93.371V4.74553H96.5053V7.77576H97.4814H97.5934V0.835459H96.6173H96.5053V3.7149H93.371V0.835459H92.3971H92.2852V7.77576H92.3971V7.66382Z" fill="#282739"/>
<path d="M100.361 5.03645H102.593L101.496 2.00712H101.459L100.361 5.03645ZM98.457 7.66357L100.99 0.947153H101.965L104.498 7.66357H103.541L102.894 5.8432H100.07L99.4141 7.66357H98.457Z" fill="#282739"/>
<path d="M100.359 5.03669V5.14863H102.752L101.573 1.89542H101.458H101.379L100.2 5.14863H100.359V5.03669L100.465 5.0752L101.563 2.04542L101.458 2.00736V2.1193H101.494V2.00736L101.389 2.04542L102.433 4.92475H100.359V5.03669L100.465 5.0752L100.359 5.03669ZM98.4553 7.66382L98.5605 7.70322L101.066 1.05934H101.886L104.334 7.55188H103.619L102.971 5.7315H99.99L99.3329 7.55188H98.4553V7.66382L98.5605 7.70322L98.4553 7.66382V7.77576H99.4124H99.4907L100.148 5.95538H102.813L103.46 7.77576H104.497H104.658L102.041 0.835459H100.988H100.911L98.293 7.77576H98.4553V7.66382Z" fill="#282739"/>
<defs>
<linearGradient id="paint0_linear_1337_16139" x1="13.626" y1="2.86117" x2="-5.16036" y2="21.6476" gradientUnits="userSpaceOnUse">
<stop stop-color="#00A0FF"/>
<stop offset="0.00657445" stop-color="#00A1FF"/>
<stop offset="0.2601" stop-color="#00BEFF"/>
<stop offset="0.5122" stop-color="#00D2FF"/>
<stop offset="0.7604" stop-color="#00DFFF"/>
<stop offset="1" stop-color="#00E3FF"/>
</linearGradient>
<linearGradient id="paint1_linear_1337_16139" x1="27.0973" y1="15.5011" x2="0.011062" y2="15.5011" gradientUnits="userSpaceOnUse">
<stop stop-color="#FFE000"/>
<stop offset="0.4087" stop-color="#FFBD00"/>
<stop offset="0.7754" stop-color="#FFA500"/>
<stop offset="1" stop-color="#FF9C00"/>
</linearGradient>
<linearGradient id="paint2_linear_1337_16139" x1="17.013" y1="18.0698" x2="-8.46273" y2="43.5455" gradientUnits="userSpaceOnUse">
<stop stop-color="#FF3A44"/>
<stop offset="1" stop-color="#C31162"/>
</linearGradient>
<linearGradient id="paint3_linear_1337_16139" x1="-2.60646" y1="-6.69135" x2="8.76947" y2="4.68458" gradientUnits="userSpaceOnUse">
<stop stop-color="#32A071"/>
<stop offset="0.0685" stop-color="#2DA771"/>
<stop offset="0.4762" stop-color="#15CF74"/>
<stop offset="0.8009" stop-color="#06E775"/>
<stop offset="1" stop-color="#00F076"/>
</linearGradient>
<linearGradient id="paint4_linear_1337_16139" x1="27.0961" y1="15.5015" x2="0.00945489" y2="15.5015" gradientUnits="userSpaceOnUse">
<stop stop-color="#CCB300"/>
<stop offset="0.4087" stop-color="#CC9700"/>
<stop offset="0.7754" stop-color="#CC8400"/>
<stop offset="1" stop-color="#CC7D00"/>
</linearGradient>
<linearGradient id="paint5_linear_1337_16139" x1="17.0161" y1="18.0698" x2="-8.45958" y2="43.5455" gradientUnits="userSpaceOnUse">
<stop stop-color="#CC2E36"/>
<stop offset="1" stop-color="#9C0E4E"/>
</linearGradient>
<linearGradient id="paint6_linear_1337_16139" x1="13.626" y1="2.8614" x2="-5.16034" y2="21.6478" gradientUnits="userSpaceOnUse">
<stop stop-color="#008DE0"/>
<stop offset="0.00657445" stop-color="#008DE0"/>
<stop offset="0.2601" stop-color="#00A7E0"/>
<stop offset="0.5122" stop-color="#00B8E0"/>
<stop offset="0.7604" stop-color="#00C4E0"/>
<stop offset="1" stop-color="#00C7E0"/>
</linearGradient>
<linearGradient id="paint7_linear_1337_16139" x1="17.0166" y1="18.0704" x2="-8.45841" y2="43.5468" gradientUnits="userSpaceOnUse">
<stop stop-color="#E0333C"/>
<stop offset="1" stop-color="#AB0F56"/>
</linearGradient>
<linearGradient id="paint8_linear_1337_16139" x1="27.0986" y1="15.5012" x2="0.0123486" y2="15.5012" gradientUnits="userSpaceOnUse">
<stop stop-color="#E0C500"/>
<stop offset="0.4087" stop-color="#E0A600"/>
<stop offset="0.7754" stop-color="#E09100"/>
<stop offset="1" stop-color="#E08900"/>
</linearGradient>
<linearGradient id="paint9_linear_1337_16139" x1="27.099" y1="15.5011" x2="0.0128319" y2="15.5011" gradientUnits="userSpaceOnUse">
<stop stop-color="#FFE840"/>
<stop offset="0.4087" stop-color="#FFCE40"/>
<stop offset="0.7754" stop-color="#FFBC40"/>
<stop offset="1" stop-color="#FFB540"/>
</linearGradient>
<linearGradient id="paint10_linear_1337_16139" x1="13.626" y1="2.86111" x2="-5.16036" y2="21.6475" gradientUnits="userSpaceOnUse">
<stop stop-color="#40B8FF"/>
<stop offset="0.00657445" stop-color="#40B9FF"/>
<stop offset="0.2601" stop-color="#40CEFF"/>
<stop offset="0.5122" stop-color="#40DDFF"/>
<stop offset="0.7604" stop-color="#40E7FF"/>
<stop offset="1" stop-color="#40EAFF"/>
</linearGradient>
<linearGradient id="paint11_linear_1337_16139" x1="-2.60666" y1="-6.69119" x2="8.76927" y2="4.68474" gradientUnits="userSpaceOnUse">
<stop stop-color="#65B895"/>
<stop offset="0.0685" stop-color="#62BD95"/>
<stop offset="0.4762" stop-color="#50DB97"/>
<stop offset="0.8009" stop-color="#44ED98"/>
<stop offset="1" stop-color="#40F498"/>
</linearGradient>
</defs>
</svg>
