<svg width="20" height="12" viewBox="0 0 20 12" fill="none" xmlns="http://www.w3.org/2000/svg">
<mask id="path-1-inside-1_1342_8991" fill="white">
<path d="M19.4141 7.26405H18.7766L16.7349 2.32565C17.0208 2.28675 17.2413 2.0423 17.2413 1.74573C17.2413 1.42214 16.979 1.1598 16.6554 1.1598H11.6177C11.3769 0.491006 10.7363 0.0114746 9.98559 0.0114746C9.23488 0.0114746 8.59422 0.491045 8.3534 1.1598H3.34465C3.02105 1.1598 2.75871 1.42214 2.75871 1.74573C2.75871 2.0423 2.97926 2.28675 3.26512 2.32565L1.22344 7.26405H0.585938C0.262344 7.26405 0 7.5264 0 7.84999C0 10.1321 1.85668 11.9888 4.13883 11.9888C6.42098 11.9888 8.27766 10.1321 8.27766 7.84999C8.27766 7.5264 8.01531 7.26405 7.69172 7.26405H7.05418L5.01504 2.33167H8.3534C8.59422 3.00046 9.23484 3.47999 9.98559 3.47999C10.7363 3.47999 11.3769 3.00046 11.6177 2.33167H14.985L12.9459 7.26405H12.3083C11.9847 7.26405 11.7224 7.5264 11.7224 7.84999C11.7224 10.1321 13.5791 11.9888 15.8612 11.9888C18.1434 11.9888 20 10.1321 20 7.84999C20 7.5264 19.7377 7.26405 19.4141 7.26405ZM4.13883 10.8169C2.70332 10.8169 1.5027 9.79229 1.22996 8.43593H7.0477C6.77496 9.79229 5.57434 10.8169 4.13883 10.8169ZM5.78613 7.26405H2.49152L4.13883 3.27952L5.78613 7.26405ZM9.98555 2.30812C9.67543 2.30812 9.42316 2.05585 9.42316 1.74573C9.42316 1.43562 9.67543 1.18335 9.98555 1.18335C10.2956 1.18335 10.5479 1.43562 10.5479 1.74573C10.5479 2.05585 10.2957 2.30812 9.98555 2.30812ZM15.8612 3.27952L17.5085 7.26405H14.2139L15.8612 3.27952ZM15.8612 10.8169C14.4257 10.8169 13.225 9.79229 12.9523 8.43593H18.77C18.4973 9.79229 17.2966 10.8169 15.8612 10.8169Z"/>
</mask>
<path d="M19.4141 7.26405H18.7766L16.7349 2.32565C17.0208 2.28675 17.2413 2.0423 17.2413 1.74573C17.2413 1.42214 16.979 1.1598 16.6554 1.1598H11.6177C11.3769 0.491006 10.7363 0.0114746 9.98559 0.0114746C9.23488 0.0114746 8.59422 0.491045 8.3534 1.1598H3.34465C3.02105 1.1598 2.75871 1.42214 2.75871 1.74573C2.75871 2.0423 2.97926 2.28675 3.26512 2.32565L1.22344 7.26405H0.585938C0.262344 7.26405 0 7.5264 0 7.84999C0 10.1321 1.85668 11.9888 4.13883 11.9888C6.42098 11.9888 8.27766 10.1321 8.27766 7.84999C8.27766 7.5264 8.01531 7.26405 7.69172 7.26405H7.05418L5.01504 2.33167H8.3534C8.59422 3.00046 9.23484 3.47999 9.98559 3.47999C10.7363 3.47999 11.3769 3.00046 11.6177 2.33167H14.985L12.9459 7.26405H12.3083C11.9847 7.26405 11.7224 7.5264 11.7224 7.84999C11.7224 10.1321 13.5791 11.9888 15.8612 11.9888C18.1434 11.9888 20 10.1321 20 7.84999C20 7.5264 19.7377 7.26405 19.4141 7.26405ZM4.13883 10.8169C2.70332 10.8169 1.5027 9.79229 1.22996 8.43593H7.0477C6.77496 9.79229 5.57434 10.8169 4.13883 10.8169ZM5.78613 7.26405H2.49152L4.13883 3.27952L5.78613 7.26405ZM9.98555 2.30812C9.67543 2.30812 9.42316 2.05585 9.42316 1.74573C9.42316 1.43562 9.67543 1.18335 9.98555 1.18335C10.2956 1.18335 10.5479 1.43562 10.5479 1.74573C10.5479 2.05585 10.2957 2.30812 9.98555 2.30812ZM15.8612 3.27952L17.5085 7.26405H14.2139L15.8612 3.27952ZM15.8612 10.8169C14.4257 10.8169 13.225 9.79229 12.9523 8.43593H18.77C18.4973 9.79229 17.2966 10.8169 15.8612 10.8169Z" fill="#5D6C7B"/>
<path d="M18.7766 7.26405L15.08 8.79229L16.1019 11.2641H18.7766V7.26405ZM16.7349 2.32565L16.1956 -1.63781L11.0571 -0.938549L13.0384 3.85389L16.7349 2.32565ZM11.6177 1.1598L7.85429 2.51495L8.80665 5.15979H11.6177V1.1598ZM8.3534 1.1598V5.15979H11.1644L12.1168 2.51502L8.3534 1.1598ZM3.26512 2.32565L6.96166 3.85391L8.94296 -0.938453L3.80455 -1.6378L3.26512 2.32565ZM1.22344 7.26405V11.2641H3.89809L4.91998 8.79231L1.22344 7.26405ZM7.05418 7.26405L3.35762 8.79228L4.3795 11.2641H7.05418V7.26405ZM5.01504 2.33167V-1.66833H-0.966991L1.31848 3.8599L5.01504 2.33167ZM8.3534 2.33167L12.1168 0.976512L11.1645 -1.66833H8.3534V2.33167ZM11.6177 2.33167V-1.66833H8.80665L7.85429 0.976512L11.6177 2.33167ZM14.985 2.33167L18.6816 3.8599L20.967 -1.66833H14.985V2.33167ZM12.9459 7.26405V11.2641H15.6205L16.6424 8.79228L12.9459 7.26405ZM1.22996 8.43593V4.43593H-3.65441L-2.69155 9.22445L1.22996 8.43593ZM7.0477 8.43593L10.9692 9.22445L11.9321 4.43593H7.0477V8.43593ZM5.78613 7.26405V11.2641H11.7682L9.48268 5.73581L5.78613 7.26405ZM2.49152 7.26405L-1.20502 5.73581L-3.49054 11.2641H2.49152V7.26405ZM4.13883 3.27952L7.83538 1.75128L4.13883 -7.19L0.44228 1.75128L4.13883 3.27952ZM15.8612 3.27952L19.5577 1.75128L15.8612 -7.19L12.1646 1.75128L15.8612 3.27952ZM17.5085 7.26405V11.2641H23.4905L21.205 5.73581L17.5085 7.26405ZM14.2139 7.26405L10.5173 5.73581L8.2318 11.2641H14.2139V7.26405ZM12.9523 8.43593V4.43593H8.06793L9.0308 9.22445L12.9523 8.43593ZM18.77 8.43593L22.6915 9.22445L23.6544 4.43593H18.77V8.43593ZM19.4141 3.26405H18.7766V11.2641H19.4141V3.26405ZM22.4731 5.73582L20.4315 0.79742L13.0384 3.85389L15.08 8.79229L22.4731 5.73582ZM17.2743 6.28912C19.5083 5.98511 21.2413 4.07746 21.2413 1.74573H13.2413C13.2413 0.00712638 14.5334 -1.41162 16.1956 -1.63781L17.2743 6.28912ZM21.2413 1.74573C21.2413 -0.787 19.1881 -2.8402 16.6554 -2.8402V5.15979C14.7698 5.15979 13.2413 3.63128 13.2413 1.74573H21.2413ZM16.6554 -2.8402H11.6177V5.15979H16.6554V-2.8402ZM15.3812 -0.195363C14.5889 -2.39574 12.4809 -3.98853 9.98559 -3.98853V4.01147C8.99163 4.01147 8.16497 3.37775 7.85429 2.51495L15.3812 -0.195363ZM9.98559 -3.98853C7.49022 -3.98853 5.38231 -2.39571 4.58997 -0.195433L12.1168 2.51502C11.8061 3.3778 10.9795 4.01147 9.98559 4.01147V-3.98853ZM8.3534 -2.8402H3.34465V5.15979H8.3534V-2.8402ZM3.34465 -2.8402C0.811916 -2.8402 -1.24129 -0.787 -1.24129 1.74573H6.75871C6.75871 3.63128 5.23019 5.15979 3.34465 5.15979V-2.8402ZM-1.24129 1.74573C-1.24129 4.0777 0.492035 5.98511 2.72568 6.28911L3.80455 -1.6378C5.46648 -1.41161 6.75871 0.00688886 6.75871 1.74573H-1.24129ZM-0.431425 0.797394L-2.4731 5.73579L4.91998 8.79231L6.96166 3.85391L-0.431425 0.797394ZM1.22344 3.26405H0.585938V11.2641H1.22344V3.26405ZM0.585938 3.26405C-1.9468 3.26405 -4 5.31726 -4 7.84999H4C4 9.73553 2.47148 11.2641 0.585938 11.2641V3.26405ZM-4 7.84999C-4 12.3413 -0.352459 15.9888 4.13883 15.9888V7.98882C4.11514 7.98882 4.10112 7.98478 4.08983 7.97999C4.07582 7.97406 4.05865 7.9634 4.04204 7.94678C4.02542 7.93017 4.01476 7.913 4.00882 7.89899C4.00404 7.8877 4 7.87368 4 7.84999H-4ZM4.13883 15.9888C8.63012 15.9888 12.2777 12.3413 12.2777 7.84999H4.27766C4.27766 7.87368 4.27362 7.8877 4.26883 7.89899C4.2629 7.913 4.25223 7.93017 4.23562 7.94678C4.21901 7.9634 4.20183 7.97406 4.18783 7.97999C4.17654 7.98478 4.16251 7.98882 4.13883 7.98882V15.9888ZM12.2777 7.84999C12.2777 5.31726 10.2245 3.26405 7.69172 3.26405V11.2641C5.80617 11.2641 4.27766 9.73553 4.27766 7.84999H12.2777ZM7.69172 3.26405H7.05418V11.2641H7.69172V3.26405ZM10.7507 5.73583L8.71159 0.803443L1.31848 3.8599L3.35762 8.79228L10.7507 5.73583ZM5.01504 6.33167H8.3534V-1.66833H5.01504V6.33167ZM4.58995 3.68683C5.38229 5.88726 7.49024 7.47999 9.98559 7.47999V-0.52001C10.9795 -0.52001 11.8061 0.113659 12.1168 0.976512L4.58995 3.68683ZM9.98559 7.47999C12.4809 7.47999 14.5889 5.88721 15.3812 3.68683L7.85429 0.976512C8.16497 0.113709 8.99163 -0.52001 9.98559 -0.52001V7.47999ZM11.6177 6.33167H14.985V-1.66833H11.6177V6.33167ZM11.2884 0.803444L9.2493 5.73583L16.6424 8.79228L18.6816 3.8599L11.2884 0.803444ZM12.9459 3.26405H12.3083V11.2641H12.9459V3.26405ZM12.3083 3.26405C9.77559 3.26405 7.72238 5.31726 7.72238 7.84999H15.7224C15.7224 9.73553 14.1939 11.2641 12.3083 11.2641V3.26405ZM7.72238 7.84999C7.72238 12.3413 11.3699 15.9888 15.8612 15.9888V7.98882C15.8375 7.98882 15.8235 7.98478 15.8122 7.97999C15.7982 7.97406 15.781 7.9634 15.7644 7.94678C15.7478 7.93017 15.7371 7.913 15.7312 7.89899C15.7264 7.8877 15.7224 7.87368 15.7224 7.84999H7.72238ZM15.8612 15.9888C20.3525 15.9888 24 12.3412 24 7.84999H16C16 7.87369 15.996 7.88772 15.9912 7.89901C15.9852 7.91302 15.9746 7.93019 15.958 7.9468C15.9414 7.96341 15.9242 7.97407 15.9102 7.98C15.8989 7.98478 15.8849 7.98882 15.8612 7.98882V15.9888ZM24 7.84999C24 5.31726 21.9468 3.26405 19.4141 3.26405V11.2641C17.5285 11.2641 16 9.73553 16 7.84999H24ZM4.13883 6.81694C4.64856 6.81694 5.05659 7.17555 5.15147 7.6474L-2.69155 9.22445C-2.0512 12.409 0.758084 14.8169 4.13883 14.8169V6.81694ZM1.22996 12.4359H7.0477V4.43593H1.22996V12.4359ZM3.12619 7.6474C3.22107 7.17555 3.6291 6.81694 4.13883 6.81694V14.8169C7.51957 14.8169 10.3289 12.409 10.9692 9.22445L3.12619 7.6474ZM5.78613 3.26405H2.49152V11.2641H5.78613V3.26405ZM6.18807 8.7923L7.83538 4.80777L0.44228 1.75128L-1.20502 5.73581L6.18807 8.7923ZM0.44228 4.80777L2.08958 8.7923L9.48268 5.73581L7.83538 1.75128L0.44228 4.80777ZM9.98555 -1.69188C11.8846 -1.69188 13.4232 -0.153291 13.4232 1.74573H5.42316C5.42316 4.26499 7.46629 6.30812 9.98555 6.30812V-1.69188ZM13.4232 1.74573C13.4232 3.64475 11.8846 5.18335 9.98555 5.18335V-2.81665C7.46629 -2.81665 5.42316 -0.773521 5.42316 1.74573H13.4232ZM9.98555 5.18335C8.08667 5.18335 6.54793 3.64493 6.54793 1.74573H14.5479C14.5479 -0.773702 12.5046 -2.81665 9.98555 -2.81665V5.18335ZM6.54793 1.74573C6.54793 -0.153291 8.08653 -1.69188 9.98555 -1.69188V6.30812C12.5048 6.30812 14.5479 4.26499 14.5479 1.74573H6.54793ZM12.1646 4.80777L13.8119 8.7923L21.205 5.73581L19.5577 1.75128L12.1646 4.80777ZM17.5085 3.26405H14.2139V11.2641H17.5085V3.26405ZM17.9104 8.7923L19.5577 4.80777L12.1646 1.75128L10.5173 5.73581L17.9104 8.7923ZM15.8612 6.81694C16.3709 6.81694 16.7789 7.17555 16.8738 7.6474L9.0308 9.22445C9.67114 12.409 12.4804 14.8169 15.8612 14.8169V6.81694ZM12.9523 12.4359H18.77V4.43593H12.9523V12.4359ZM14.8485 7.6474C14.9434 7.17552 15.3514 6.81694 15.8612 6.81694V14.8169C19.2418 14.8169 22.0512 12.4091 22.6915 9.22445L14.8485 7.6474Z" fill="#5D6C7B" mask="url(#path-1-inside-1_1342_8991)"/>
</svg>
