<svg width="35" height="24" viewBox="0 0 35 24" fill="none" xmlns="http://www.w3.org/2000/svg">
<path d="M20.3464 11.8072C20.3464 15.5191 17.3718 18.5282 13.7025 18.5282C10.0332 18.5282 7.05867 15.5191 7.05867 11.8072C7.05867 8.09534 10.0332 5.08625 13.7025 5.08625C17.3718 5.08625 20.3464 8.09534 20.3464 11.8072Z" fill="#ED0006"/>
<path d="M28.9655 11.8072C28.9655 15.5191 25.9909 18.5282 22.3216 18.5282C18.6523 18.5282 15.6777 15.5191 15.6777 11.8072C15.6777 8.09534 18.6523 5.08625 22.3216 5.08625C25.9909 5.08625 28.9655 8.09534 28.9655 11.8072Z" fill="#0099DF"/>
<path fill-rule="evenodd" clip-rule="evenodd" d="M18.0121 6.69183C19.4406 7.92459 20.3464 9.75891 20.3464 11.8073C20.3464 13.8556 19.4406 15.6899 18.0121 16.9227C16.5836 15.6899 15.6778 13.8556 15.6778 11.8073C15.6778 9.75891 16.5836 7.92459 18.0121 6.69183Z" fill="#6C6BBD"/>
</svg>
