<svg width="35" height="24" viewBox="0 0 35 24" fill="none" xmlns="http://www.w3.org/2000/svg">
<path fill-rule="evenodd" clip-rule="evenodd" d="M9.3275 8.1232C9.04147 8.46582 8.58382 8.73606 8.12617 8.69745C8.06896 8.23419 8.29302 7.74198 8.55522 7.43796C8.84125 7.08569 9.3418 6.83476 9.74701 6.81545C9.79468 7.29802 9.60876 7.77093 9.3275 8.1232ZM9.74221 8.78914C9.33902 8.76565 8.97114 8.91188 8.67399 9.02999C8.48277 9.106 8.32084 9.17036 8.19764 9.17036C8.05939 9.17036 7.89077 9.10255 7.70146 9.02642C7.45339 8.92667 7.16978 8.81262 6.87236 8.81809C6.19066 8.82774 5.55662 9.21862 5.20862 9.84112C4.49354 11.0861 5.0227 12.9295 5.71394 13.9429C6.05241 14.4448 6.45762 14.9949 6.99154 14.9756C7.22644 14.9666 7.39541 14.894 7.57028 14.8189C7.77159 14.7325 7.98073 14.6426 8.30728 14.6426C8.62252 14.6426 8.82251 14.7301 9.01449 14.8141C9.19703 14.894 9.37233 14.9707 9.63256 14.9659C10.1856 14.9563 10.5336 14.4641 10.872 13.9622C11.2373 13.4236 11.3978 12.8979 11.4222 12.8181L11.425 12.8089C11.4244 12.8083 11.4199 12.8062 11.412 12.8025C11.2899 12.7459 10.3566 12.3134 10.3476 11.1537C10.3386 10.1803 11.0879 9.68705 11.2058 9.60942L11.2058 9.60941C11.213 9.60469 11.2178 9.6015 11.22 9.59984C10.7433 8.88565 9.99963 8.80844 9.74221 8.78914ZM13.5703 14.9129V7.3897H16.3591C17.7988 7.3897 18.8047 8.39343 18.8047 9.86043C18.8047 11.3274 17.7797 12.3408 16.321 12.3408H14.7239V14.9129H13.5703ZM14.7238 8.37413H16.0539C17.055 8.37413 17.6271 8.9146 17.6271 9.86525C17.6271 10.8159 17.055 11.3612 16.0491 11.3612H14.7238V8.37413ZM22.6137 14.0105C22.3086 14.5992 21.6364 14.9708 20.9118 14.9708C19.8392 14.9708 19.0907 14.3241 19.0907 13.3494C19.0907 12.3842 19.8153 11.8293 21.1549 11.7473L22.5946 11.6604V11.2454C22.5946 10.6325 22.1989 10.2996 21.4934 10.2996C20.9118 10.2996 20.4875 10.6036 20.4017 11.0668H19.3625C19.3958 10.0921 20.3016 9.38269 21.5268 9.38269C22.8473 9.38269 23.7054 10.0824 23.7054 11.1682V14.9129H22.6375V14.0105H22.6137ZM21.2216 14.078C20.6066 14.078 20.2157 13.7788 20.2157 13.3204C20.2157 12.8475 20.5923 12.5724 21.3122 12.529L22.5945 12.447V12.8716C22.5945 13.5762 22.0034 14.078 21.2216 14.078ZM27.2473 15.2072C26.7849 16.5246 26.2558 16.9589 25.1307 16.9589C25.0449 16.9589 24.7589 16.9493 24.6921 16.93V16.0276C24.7636 16.0372 24.94 16.0469 25.0306 16.0469C25.5407 16.0469 25.8267 15.8297 26.0031 15.2651L26.108 14.9322L24.1534 9.45508H25.3595L26.7182 13.8995H26.742L28.1007 9.45508H29.2734L27.2473 15.2072Z" fill="#282739"/>
</svg>
