<svg width="35" height="24" viewBox="0 0 35 24" fill="none" xmlns="http://www.w3.org/2000/svg">
<path fill-rule="evenodd" clip-rule="evenodd" d="M11.2358 15.8296H9.17134L7.62328 9.92367C7.5498 9.65199 7.39378 9.41182 7.16429 9.29862C6.59157 9.01415 5.96046 8.78775 5.27199 8.67357V8.44619H8.59761C9.05659 8.44619 9.40083 8.78775 9.45821 9.18444L10.2614 13.4446L12.3248 8.44619H14.3319L11.2358 15.8296ZM15.4794 15.8296H13.5297L15.1351 8.44619H17.0848L15.4794 15.8296ZM19.6072 10.4916C19.6646 10.094 20.0088 9.86658 20.4104 9.86658C21.0415 9.80949 21.729 9.92367 22.3027 10.2072L22.647 8.61747C22.0732 8.39009 21.4421 8.27591 20.8694 8.27591C18.9771 8.27591 17.6001 9.29862 17.6001 10.718C17.6001 11.7978 18.5755 12.3648 19.264 12.7064C20.0088 13.0469 20.2957 13.2743 20.2383 13.6149C20.2383 14.1258 19.6646 14.3531 19.0918 14.3531C18.4034 14.3531 17.7149 14.1828 17.0848 13.8984L16.7406 15.489C17.429 15.7725 18.1739 15.8867 18.8623 15.8867C20.9841 15.9428 22.3027 14.9211 22.3027 13.3875C22.3027 11.4563 19.6072 11.3431 19.6072 10.4916V10.4916ZM29.1261 15.8296L27.578 8.44619H25.9152C25.571 8.44619 25.2267 8.67357 25.112 9.01415L22.2453 15.8296H24.2524L24.653 14.7508H27.119L27.3485 15.8296H29.1261ZM26.2021 10.4345L26.7748 13.2172H25.1694L26.2021 10.4345Z" fill="#172B85"/>
</svg>
