<svg width="35" height="24" viewBox="0 0 35 24" fill="none" xmlns="http://www.w3.org/2000/svg">
<path fill-rule="evenodd" clip-rule="evenodd" d="M13.5467 15.7326C13.6992 15.6534 13.9585 15.5494 14.2332 15.5494C14.8636 15.5494 15.2044 15.9751 15.2044 16.7673C15.2044 17.6926 14.7469 18.1431 14.0095 18.1431C13.7399 18.1431 13.323 18.059 13.0178 17.9004V14.4457L13.5467 14.3219V15.7326ZM13.5417 17.7173C13.7043 17.7867 13.8824 17.7965 14.0095 17.7965C14.3858 17.7965 14.6705 17.5689 14.6705 16.7673C14.6705 16.1385 14.4366 15.9356 14.096 15.9356C13.8924 15.9356 13.7451 15.99 13.5417 16.0989V17.7173ZM8.12576 15.6137H8.16137L8.85278 18.0837H9.40191L10.2258 14.5742H9.6308L9.11215 17.1927H9.07671L8.36975 14.5742H7.9172L7.25619 17.1927H7.22057L6.65103 14.5742H6.08157L6.90536 18.0837H7.4544L8.12576 15.6137ZM12.4791 17.9153V17.5391C12.1994 17.7024 11.9452 17.7965 11.6707 17.7965C11.1469 17.7965 10.8978 17.534 10.8978 16.9402H12.5554V16.7571C12.5554 15.9504 12.1638 15.5494 11.5283 15.5494C10.7656 15.5494 10.374 16.0939 10.374 16.8461C10.374 17.6283 10.7248 18.1431 11.579 18.1431C11.9452 18.1431 12.2503 18.0441 12.4791 17.9153ZM12.0723 16.6086H10.9081C10.9638 16.1138 11.2027 15.8811 11.5131 15.8811C11.7876 15.8811 12.0471 16.0888 12.0723 16.6086ZM17.5435 17.3412H17.518L16.379 14.5742H15.7637V18.0837H16.2214V15.599H16.2671L17.3046 18.0837H17.6299L18.6672 15.5395H18.7131V18.0837H19.2622V14.5742H18.6316L17.5435 17.3412ZM19.8217 16.8461C19.8217 15.9799 20.3098 15.5494 20.981 15.5494C21.6523 15.5494 22.1405 15.9799 22.1405 16.8461C22.1405 17.6926 21.6777 18.1431 20.981 18.1431C20.2843 18.1431 19.8217 17.6926 19.8217 16.8461ZM21.6065 16.8461C21.6065 16.178 21.3267 15.896 20.981 15.896C20.6453 15.896 20.3555 16.178 20.3555 16.8461C20.3555 17.5245 20.6201 17.7965 20.981 17.7965C21.342 17.7965 21.6065 17.5245 21.6065 16.8461ZM23.9198 15.5494C23.3354 15.5494 22.8522 15.782 22.6234 15.9157V18.0837H23.1523V16.1236C23.3098 16.0346 23.5692 15.9454 23.7727 15.9454C24.032 15.9454 24.2301 16.0147 24.2301 16.4057V18.0837H24.7589V16.2917C24.7589 15.782 24.5303 15.5494 23.9198 15.5494ZM27.3369 17.5391V17.9153C27.1082 18.0441 26.8032 18.1431 26.4369 18.1431C25.5828 18.1431 25.2319 17.6283 25.2319 16.8461C25.2319 16.0939 25.6236 15.5494 26.3862 15.5494C27.0219 15.5494 27.4136 15.9504 27.4136 16.7571V16.9402H25.7559C25.7559 17.534 26.005 17.7965 26.5287 17.7965C26.8032 17.7965 27.0575 17.7024 27.3369 17.5391ZM25.766 16.6086H26.9304C26.9051 16.0888 26.6455 15.8811 26.371 15.8811C26.0607 15.8811 25.822 16.1138 25.766 16.6086ZM29.9357 15.6335H29.3916L28.8117 17.4549H28.7814L28.1305 15.6335H27.5711L28.5474 18.1084C28.4252 18.4745 28.2119 18.7421 27.8661 18.7421V19.1477C28.4506 19.1477 28.7609 18.7915 29.0152 18.1084L29.9357 15.6335Z" fill="#0068A3"/>
<path fill-rule="evenodd" clip-rule="evenodd" d="M17.6677 4.19961C18.3674 4.19961 19.0302 4.35823 19.6204 4.63984C19.7131 4.68265 19.8056 4.72975 19.8983 4.78175L19.488 5.13917L18.8716 4.51878L17.8313 5.42201L17.2133 4.76555L15.2753 6.46591L16.5178 7.7987L16.0295 8.2167L17.2533 9.5515L16.7679 9.96854L18.5165 11.8632L19.5546 10.933L20.452 11.9298C20.2735 12.0648 20.0791 12.1919 19.8648 12.3094C19.2159 12.6697 18.4658 12.8759 17.6677 12.8759C15.213 12.8759 13.211 10.9269 13.211 8.53788C13.211 6.14832 15.213 4.19961 17.6677 4.19961ZM16.8554 8.26362L17.9152 7.33465L18.8695 8.36648L17.8098 9.29509L16.8554 8.26362ZM18.6689 9.11739L17.6091 10.0461L18.5635 11.0779L19.6233 10.149L18.6689 9.11739ZM16.0971 6.50198L17.1569 5.57327L18.1109 6.60484L17.0512 7.53354L16.0971 6.50198ZM18.8368 5.30558L18.0419 6.00204L18.7575 6.77598L19.5524 6.07925L18.8368 5.30558ZM19.4541 9.19277L20.2492 8.49604L20.9648 9.26989L20.17 9.96644L19.4541 9.19277ZM20.948 10.0587L20.1534 10.7555L20.869 11.5289L21.6638 10.8324L20.948 10.0587ZM20.4735 7.17384L21.0034 6.70945L21.4804 7.22523L20.9507 7.68954L20.4735 7.17384ZM20.3264 5.17698L19.7965 5.64129L20.2735 6.15707L20.8035 5.69276L20.3264 5.17698ZM21.1509 8.7063L21.6808 8.24191L22.1579 8.7576L21.628 9.222L21.1509 8.7063ZM19.5693 6.86115L18.7745 7.55796L19.4903 8.33137L20.2849 7.63482L19.5693 6.86115Z" fill="#0068A3"/>
</svg>
