<svg width="35" height="24" viewBox="0 0 35 24" fill="none" xmlns="http://www.w3.org/2000/svg">
<path fill-rule="evenodd" clip-rule="evenodd" d="M18.0668 16.9227C16.9066 17.9239 15.4017 18.5282 13.7572 18.5282C10.0879 18.5282 7.11335 15.5191 7.11335 11.8072C7.11335 8.09534 10.0879 5.08625 13.7572 5.08625C15.4017 5.08625 16.9066 5.69063 18.0668 6.6918C19.2269 5.69063 20.7318 5.08625 22.3763 5.08625C26.0456 5.08625 29.0202 8.09534 29.0202 11.8072C29.0202 15.5191 26.0456 18.5282 22.3763 18.5282C20.7318 18.5282 19.2269 17.9239 18.0668 16.9227Z" fill="#ED0006"/>
<path fill-rule="evenodd" clip-rule="evenodd" d="M18.0668 16.9227C19.4953 15.6899 20.4011 13.8556 20.4011 11.8072C20.4011 9.75889 19.4953 7.92456 18.0668 6.6918C19.2269 5.69063 20.7318 5.08625 22.3763 5.08625C26.0456 5.08625 29.0202 8.09534 29.0202 11.8072C29.0202 15.5191 26.0456 18.5282 22.3763 18.5282C20.7318 18.5282 19.2269 17.9239 18.0668 16.9227Z" fill="#F9A000"/>
<path fill-rule="evenodd" clip-rule="evenodd" d="M18.0668 6.69183C19.4953 7.92459 20.4011 9.75891 20.4011 11.8073C20.4011 13.8556 19.4953 15.6899 18.0668 16.9227C16.6383 15.6899 15.7325 13.8556 15.7325 11.8073C15.7325 9.75891 16.6383 7.92459 18.0668 6.69183Z" fill="#FF5E00"/>
</svg>
