<svg xmlns="http://www.w3.org/2000/svg" style="display: none">
  <symbol id="icon-favorite" viewBox="0 0 20 20">
    <path d="M17.9951 5.51484C17.7344 4.90528 17.3586 4.35291 16.8886 3.88864C16.4182 3.42298 15.8637 3.05293 15.2551 2.79861C14.624 2.53385 13.9471 2.39833 13.2637 2.39992C12.305 2.39992 11.3696 2.66506 10.5568 3.16588C10.3623 3.28569 10.1775 3.41727 10.0025 3.56065C9.8275 3.41727 9.64276 3.28569 9.44829 3.16588C8.63542 2.66506 7.70004 2.39992 6.74132 2.39992C6.05096 2.39992 5.382 2.53347 4.74998 2.79861C4.13935 3.05393 3.58901 3.4212 3.11646 3.88864C2.64584 4.35239 2.2699 4.90489 2.00994 5.51484C1.73963 6.14922 1.60156 6.82287 1.60156 7.51617C1.60156 8.17019 1.7338 8.8517 1.99633 9.54499C2.21608 10.1244 2.53111 10.7254 2.93366 11.3322C3.57151 12.2926 4.44855 13.2943 5.53757 14.3097C7.34222 15.9929 9.12937 17.1555 9.20521 17.2027L9.6661 17.5012C9.87029 17.6328 10.1328 17.6328 10.337 17.5012L10.7979 17.2027C10.8737 17.1536 12.6589 15.9929 14.4655 14.3097C15.5545 13.2943 16.4316 12.2926 17.0694 11.3322C17.472 10.7254 17.789 10.1244 18.0068 9.54499C18.2693 8.8517 18.4015 8.17019 18.4015 7.51617C18.4035 6.82287 18.2654 6.14922 17.9951 5.51484ZM10.0025 15.9477C10.0025 15.9477 3.07951 11.4678 3.07951 7.51617C3.07951 5.51484 4.71886 3.89257 6.74132 3.89257C8.16287 3.89257 9.39579 4.69388 10.0025 5.86443C10.6093 4.69388 11.8422 3.89257 13.2637 3.89257C15.2862 3.89257 16.9255 5.51484 16.9255 7.51617C16.9255 11.4678 10.0025 15.9477 10.0025 15.9477Z"/>
  </symbol>
  <symbol id="icon-basket" viewBox="0 0 20 20">
    <path d="M19.1523 7.25427H15.0031L12.6756 1.92486C12.5462 1.62833 12.2008 1.49282 11.9042 1.62239C11.6076 1.75189 11.4722 2.09732 11.6017 2.39388L13.7244 7.25431H6.27564L8.3983 2.39388C8.52779 2.09732 8.3924 1.75193 8.09584 1.62239C7.79932 1.49282 7.45385 1.62825 7.32439 1.92486L4.99689 7.25427H0.847715C0.304942 7.25427 -0.0978707 7.74564 0.0208793 8.26286L2.20584 17.7797C2.2926 18.1575 2.63611 18.4261 3.03268 18.4261H16.9674C17.3639 18.4261 17.7074 18.1575 17.7942 17.7797L19.9792 8.26286C20.0979 7.74568 19.6951 7.25427 19.1523 7.25427V7.25427ZM5.10713 9.0513C5.02885 9.0513 4.94928 9.03552 4.87291 9.00216C4.57635 8.87267 4.44092 8.52728 4.57045 8.23068L5.01061 7.22278H6.28936L5.64436 8.69966C5.54822 8.91993 5.33299 9.0513 5.10713 9.0513ZM7.07033 15.3011C7.07033 15.6247 6.80799 15.8871 6.48439 15.8871C6.1608 15.8871 5.89846 15.6247 5.89846 15.3011V11.0043C5.89846 10.6807 6.1608 10.4183 6.48439 10.4183C6.80799 10.4183 7.07033 10.6807 7.07033 11.0043V15.3011ZM10.586 15.3011C10.586 15.6247 10.3236 15.8871 10 15.8871C9.67643 15.8871 9.41408 15.6247 9.41408 15.3011V11.0043C9.41408 10.6807 9.67643 10.4183 10 10.4183C10.3236 10.4183 10.586 10.6807 10.586 11.0043V15.3011ZM14.1016 15.3011C14.1016 15.6247 13.8392 15.8871 13.5156 15.8871C13.1921 15.8871 12.9297 15.6247 12.9297 15.3011V11.0043C12.9297 10.6807 13.1921 10.4183 13.5156 10.4183C13.8392 10.4183 14.1016 10.6807 14.1016 11.0043V15.3011ZM15.1271 9.00216C15.0508 9.03552 14.9712 9.0513 14.8929 9.0513C14.6671 9.0513 14.4518 8.91997 14.3556 8.6997L13.7106 7.22282H14.9894L15.4296 8.23072C15.5591 8.52728 15.4237 8.87267 15.1271 9.00216Z" fill="#6F73EE"/>
  </symbol>
  <symbol id="icon-comparison" viewBox="0 0 20 12">
    <path fill-rule="evenodd" clip-rule="evenodd" d="M18.77 8.43568C18.613 9.2166 18.1484 9.88756 17.5085 10.3163C17.4207 10.3751 17.3297 10.4293 17.2357 10.4787C16.84 10.6864 16.3919 10.8074 15.9168 10.8162C15.8983 10.8165 15.8798 10.8167 15.8612 10.8167C15.8612 10.8167 15.8612 10.8167 15.8612 10.8167C15.8426 10.8167 15.8241 10.8165 15.8056 10.8162C15.3305 10.8074 14.8824 10.6864 14.4866 10.4787C14.3927 10.4294 14.3016 10.3751 14.2139 10.3163C13.5739 9.88757 13.1093 9.21661 12.9523 8.43568H18.77ZM18.7766 7.26381H19.4141C19.7377 7.26381 20 7.52615 20 7.84975C20 8.12933 19.9721 8.40254 19.919 8.66672C19.825 9.13461 19.6518 9.57421 19.4141 9.9709C19.2358 10.2684 19.0212 10.5417 18.7766 10.7848C18.7744 10.7869 18.7722 10.7891 18.77 10.7912C18.6549 10.9052 18.533 11.0124 18.4052 11.1123C18.3379 11.1649 18.269 11.2154 18.1985 11.2638C17.533 11.7209 16.7278 11.9886 15.8612 11.9886C15.8612 11.9886 15.8612 11.9886 15.8612 11.9886C14.9946 11.9886 14.1894 11.7209 13.5239 11.2638C13.4534 11.2154 13.3845 11.1649 13.3172 11.1123C13.1894 11.0124 13.0675 10.9051 12.9523 10.7912C12.9502 10.7891 12.948 10.7869 12.9459 10.7848C12.7012 10.5417 12.4866 10.2684 12.3083 9.97089C12.2303 9.84076 12.1593 9.70601 12.0957 9.56717C11.9655 9.28274 11.8665 8.98112 11.8033 8.66671C11.7502 8.40253 11.7224 8.12933 11.7224 7.84975C11.7224 7.5489 11.9491 7.30099 12.2411 7.26763C12.2631 7.2651 12.2856 7.26381 12.3083 7.26381H12.9459L14.985 2.33143H11.6177C11.6173 2.3325 11.617 2.33357 11.6166 2.33464C11.3968 2.94121 10.8479 3.39144 10.1867 3.46815C10.1207 3.47581 10.0536 3.47975 9.98559 3.47975C9.98557 3.47975 9.9856 3.47975 9.98559 3.47975C9.92794 3.47974 9.8709 3.47692 9.81468 3.47139C9.13994 3.40508 8.57764 2.9504 8.35454 2.33458C8.35416 2.33353 8.35378 2.33248 8.3534 2.33143H5.01504L7.05418 7.26381H7.69172C7.71447 7.26381 7.73691 7.2651 7.75898 7.26763C8.0509 7.30099 8.27766 7.5489 8.27766 7.84975C8.27766 8.12933 8.24979 8.40254 8.19669 8.66672C8.13349 8.98112 8.03455 9.28275 7.90431 9.56717C7.84074 9.70601 7.7697 9.84076 7.69172 9.97089C7.51344 10.2684 7.29887 10.5417 7.05418 10.7848C7.05202 10.7869 7.04986 10.7891 7.0477 10.7912C6.9325 10.9052 6.81067 11.0124 6.68284 11.1123C6.61557 11.1649 6.54665 11.2154 6.47615 11.2638C5.81063 11.7209 5.0054 11.9886 4.13883 11.9886C3.27225 11.9886 2.46702 11.7209 1.8015 11.2638C1.73101 11.2154 1.66208 11.1649 1.59482 11.1123C1.46699 11.0124 1.34516 10.9052 1.22996 10.7912C1.22778 10.7891 1.22561 10.7869 1.22344 10.7848C0.978759 10.5417 0.764205 10.2684 0.585938 9.97089C0.348209 9.57419 0.175013 9.1346 0.0809684 8.66672C0.0278667 8.40254 0 8.12933 0 7.84975C0 7.52615 0.262344 7.26381 0.585938 7.26381H1.22344L3.26512 2.32541C3.163 2.31151 3.06922 2.27138 2.99085 2.21202C2.84983 2.1052 2.75871 1.93611 2.75871 1.74549C2.75871 1.42189 3.02105 1.15955 3.34465 1.15955H8.3534C8.35378 1.1585 8.35416 1.15745 8.35454 1.1564C8.38642 1.06841 8.42522 0.983708 8.47029 0.902958C8.76692 0.37151 9.3349 0.0112449 9.98555 0.0112305C9.98556 0.0112305 9.98553 0.0112305 9.98555 0.0112305C10.6298 0.0112305 11.1931 0.364445 11.492 0.887373C11.5409 0.972787 11.5827 1.06273 11.6166 1.1564C11.617 1.15745 11.6174 1.1585 11.6177 1.15955H16.6554C16.979 1.15955 17.2413 1.42189 17.2413 1.74549C17.2413 1.9361 17.1502 2.10519 17.0092 2.21201C16.9309 2.27138 16.8371 2.31151 16.7349 2.32541L18.7766 7.26381ZM17.5085 7.26381L16.6385 5.15955L15.8612 3.27928L14.2139 7.26381H17.5085ZM3.36149 5.15951L2.49152 7.26381H5.78613L4.13883 3.27928L3.36149 5.15951ZM1.22996 8.43568C1.38699 9.21661 1.8516 9.88757 2.49152 10.3163C2.57926 10.3751 2.67029 10.4293 2.76428 10.4787C3.16 10.6864 3.60811 10.8074 4.08315 10.8162C4.10167 10.8165 4.12023 10.8167 4.13883 10.8167C4.15741 10.8167 4.17595 10.8165 4.19445 10.8162C4.66951 10.8074 5.11764 10.6864 5.51338 10.4787C5.60736 10.4293 5.6984 10.3751 5.78613 10.3163C6.42606 9.88757 6.89067 9.21661 7.0477 8.43568H1.22996ZM9.45696 1.93761C9.53563 2.1534 9.74287 2.30787 9.98555 2.30787C9.98556 2.30787 9.98553 2.30787 9.98555 2.30787C10.2282 2.30785 10.4355 2.1534 10.5141 1.93764C10.5145 1.93658 10.5149 1.93551 10.5153 1.93445C10.5364 1.87537 10.5479 1.81175 10.5479 1.74549C10.5479 1.67923 10.5364 1.61561 10.5153 1.55653C10.5149 1.55548 10.5145 1.55443 10.5141 1.55338C10.4355 1.3376 10.2282 1.18312 9.98559 1.18311C9.98557 1.18311 9.9856 1.18311 9.98559 1.18311C9.74291 1.18311 9.53563 1.33758 9.45696 1.55336C9.45657 1.55442 9.45619 1.55548 9.45581 1.55654C9.43468 1.61562 9.42316 1.67923 9.42316 1.74549C9.42316 1.81175 9.43468 1.87538 9.45582 1.93446C9.4562 1.93551 9.45658 1.93656 9.45696 1.93761Z" />
  </symbol>
  <symbol id="icon-basket-violet">
  </symbol>
</svg>
