<svg xmlns="http://www.w3.org/2000/svg" style="display: none">
  <symbol id="icon-basket" viewBox="0 0 25 23">
    <path d="M23.9404 8.0679H18.7539L15.8446 1.40613C15.6827 1.03548 15.251 0.866091 14.8803 1.02805C14.5095 1.18992 14.3403 1.62171 14.5022 1.99241L17.1555 8.06795H7.84456L10.4979 1.99241C10.6597 1.62171 10.4905 1.18997 10.1198 1.02805C9.74915 0.866091 9.31731 1.03538 9.15549 1.40613L6.24612 8.0679H1.05964C0.381177 8.0679 -0.122338 8.68211 0.0260991 9.32864L2.7573 21.2246C2.86575 21.697 3.29514 22.0327 3.79085 22.0327H21.2092C21.7049 22.0327 22.1343 21.697 22.2428 21.2246L24.974 9.32864C25.1224 8.68216 24.6188 8.0679 23.9404 8.0679V8.0679ZM6.38391 10.3142C6.28606 10.3142 6.1866 10.2945 6.09114 10.2528C5.72044 10.0909 5.55115 9.65916 5.71306 9.28841L6.26326 8.02854H7.86169L7.05544 9.87464C6.93528 10.15 6.66624 10.3142 6.38391 10.3142ZM8.83792 18.1265C8.83792 18.531 8.50999 18.8589 8.10549 18.8589C7.701 18.8589 7.37307 18.531 7.37307 18.1265V12.7554C7.37307 12.3509 7.701 12.023 8.10549 12.023C8.50999 12.023 8.83792 12.3509 8.83792 12.7554V18.1265ZM13.2324 18.1265C13.2324 18.531 12.9045 18.8589 12.5 18.8589C12.0955 18.8589 11.7676 18.531 11.7676 18.1265V12.7554C11.7676 12.3509 12.0955 12.023 12.5 12.023C12.9045 12.023 13.2324 12.3509 13.2324 12.7554V18.1265ZM17.627 18.1265C17.627 18.531 17.299 18.8589 16.8946 18.8589C16.4901 18.8589 16.1621 18.531 16.1621 18.1265V12.7554C16.1621 12.3509 16.4901 12.023 16.8946 12.023C17.299 12.023 17.627 12.3509 17.627 12.7554V18.1265ZM18.9089 10.2528C18.8135 10.2945 18.714 10.3142 18.6161 10.3142C18.3338 10.3142 18.0648 10.15 17.9446 9.87469L17.1383 8.02859H18.7367L19.2869 9.28845C19.4489 9.65916 19.2796 10.0909 18.9089 10.2528Z" />
  </symbol>
  <symbol id="icon-money" viewBox="0 0 25 19">
  <path fill-rule="evenodd" clip-rule="evenodd" d="M15.625 8.97917C15.625 11.5635 17.7281 13.6667 20.3125 13.6667H22.9167V16.0104C22.9167 17.5906 21.6323 18.875 20.0521 18.875H2.86458C1.28438 18.875 0 17.5906 0 16.0104V2.98958C0 1.40937 1.28438 0.125 2.86458 0.125H20.0521C21.6323 0.125 22.9167 1.40937 22.9167 2.98958V4.29167H20.3125C17.7281 4.29167 15.625 6.39479 15.625 8.97917ZM20.3125 5.85419H24.2188C24.65 5.85419 25 6.20419 25 6.63544V11.3229C25 11.7542 24.65 12.1042 24.2188 12.1042H20.3125C18.5896 12.1042 17.1875 10.7021 17.1875 8.97919C17.1875 7.25627 18.5896 5.85419 20.3125 5.85419ZM19.2708 8.97919C19.2708 9.55419 19.7375 10.0209 20.3125 10.0209C20.8875 10.0209 21.3542 9.55419 21.3542 8.97919C21.3542 8.40419 20.8875 7.93752 20.3125 7.93752C19.7375 7.93752 19.2708 8.40419 19.2708 8.97919Z"/>
  </symbol>
  <symbol id="icon-warranty" viewBox="0 0 25 25">
    <path d="M25 12.5141L22.8604 9.72694L23.339 6.2641L20.0732 4.96905L18.7782 1.70329L15.3153 2.18189L12.5 0.0140991L9.71284 2.15374L6.25 1.67514L4.95495 4.9409L1.68919 6.23595L2.16779 9.69878L0 12.5141L2.13964 15.3013L1.66104 18.7641L4.9268 20.0591L6.22185 23.3249L9.68468 22.8463L12.4718 24.9859L15.259 22.8463L18.7218 23.3249L20.0169 20.0591L23.2827 18.7359L22.8041 15.2731L25 12.5141ZM11.4865 16.5682L7.31982 13.1335L8.22072 12.0355L11.3176 14.5693L16.6104 8.46005L17.6802 9.3891L11.4865 16.5682Z" />
  </symbol>
  <symbol id="icon-sending" viewBox="0 0 25 25">
    <path fill-rule="evenodd" clip-rule="evenodd" d="M18.4024 0.732231V6.49967C13.5986 6.30722 9.60994 10.1448 9.60994 14.9408C9.60994 15.9914 9.87983 17.1701 10.3273 18.3556H0.779106C0.374748 18.3556 0.046875 18.0277 0.046875 17.6233V0.732231C0.046875 0.327873 0.374748 0 0.779106 0H5.72429L5.72562 5.56831C5.72524 6.10085 6.29363 6.46877 6.78516 6.22044L9.22466 4.98524L11.6159 6.19602C12.1645 6.49948 12.7254 6.09436 12.7254 5.56831V0H17.6702C18.0746 0 18.4024 0.327873 18.4024 0.732231ZM11.2597 4.3787L9.55261 3.51429C9.33708 3.40576 9.09332 3.41377 8.89343 3.51505L7.1875 4.3787V0H11.2597V4.3787ZM18.0578 7.95728C14.2011 7.95728 11.0742 11.0842 11.0742 14.9408C11.0742 16.7837 12.1175 19.2148 13.4485 21.2006C14.8786 23.3343 16.7093 25 18.0578 25C19.4063 25 21.237 23.3343 22.6671 21.2006C23.998 19.2148 25.0414 16.7837 25.0414 14.9408C25.0415 11.0842 21.9146 7.95728 18.0578 7.95728ZM18.0578 17.6287C16.5737 17.6287 15.3701 16.4251 15.3701 14.9408C15.3701 13.4567 16.5737 12.2534 18.0578 12.2534C19.5419 12.2534 20.7454 13.4567 20.7454 14.9408C20.7454 16.4251 19.5421 17.6287 18.0578 17.6287ZM18.0589 16.164C18.7345 16.164 19.2821 15.6164 19.2821 14.9408C19.2821 14.2654 18.7345 13.7178 18.0589 13.7178C17.3835 13.7178 16.8359 14.2654 16.8359 14.9408C16.8359 15.6164 17.3835 16.164 18.0589 16.164Z"/>
  </symbol>
  <symbol id="icon-percent" viewBox="0 0 25 25">
    <path fill-rule="evenodd" clip-rule="evenodd" d="M10.8546 9.70644C11.819 8.66043 12.3503 7.25734 12.3503 5.75522C12.3503 2.89523 10.3075 0 6.40246 0C4.58512 0 3.05198 0.624205 1.96855 1.80509C1.00885 2.85126 0.480469 4.25404 0.480469 5.75522C0.480469 8.61552 2.51463 11.5106 6.40246 11.5106C8.22658 11.5107 9.76643 10.8869 10.8546 9.70644ZM6.40246 2.67599C8.54211 2.67599 9.51655 4.27322 9.51655 5.75725C9.51655 6.56452 9.24491 7.31183 8.75122 7.86127C8.20046 8.47495 7.40005 8.79945 6.43716 8.79945C4.2434 8.79945 3.24401 7.20237 3.24401 5.7185C3.24401 4.2043 4.22078 2.67599 6.40246 2.67599ZM20.6066 2.22015C20.2527 2.22655 19.7695 2.44719 19.5328 2.71033L1.96559 22.242C1.72896 22.5053 1.89659 22.8744 2.25048 22.8744H4.54973C4.90362 22.8744 5.38632 22.6586 5.62256 22.3951L23.0812 2.86736C23.3174 2.6036 23.3017 2.17447 22.7169 2.17462L20.6066 2.22015ZM14.335 15.4793C15.3979 14.321 16.902 13.7083 18.6843 13.7083C22.515 13.7083 24.5192 16.5487 24.5192 19.3542C24.5192 20.8274 23.9982 22.2039 23.052 23.2301C21.9844 24.388 20.4742 25 18.6843 25C14.8705 25 12.875 22.1598 12.875 19.3542C12.875 17.8816 13.3936 16.5052 14.335 15.4793ZM15.6119 19.3179C15.6119 20.8064 16.5844 22.4091 18.7187 22.4091C19.6783 22.4091 20.4763 22.0839 21.0264 21.4685C21.5193 20.917 21.7909 20.1667 21.7909 19.3563C21.7909 17.8673 20.8188 16.2649 18.6843 16.2649C17.7245 16.2649 16.9266 16.5901 16.3767 17.2056C15.8834 17.7571 15.6119 18.5073 15.6119 19.3179Z" />
  </symbol>
</svg>
